<svg xmlns="http://www.w3.org/2000/svg" xmlns:xlink="http://www.w3.org/1999/xlink" width="32" height="32" viewBox="0 0 32 32" preserveAspectRatio="xMidYMid meet" version="1.2">
  <defs>
    <clipPath id="a48e9c6be5">
      <path d="M 112.625 22 L 349 22 L 349 281 L 112.625 281 Z M 112.625 22 "/>
    </clipPath>
  </defs>
  <!-- White circular background filling the full favicon box -->
  <circle cx="16" cy="16" r="16" fill="#ffffff"/>

  <!-- Original artwork centered at (16,16) and scaled down to fit within the circle -->
  <!-- scale chosen ~0.054 (32/562.5≈0.0569) to add a small padding inside the circle -->
  <g transform="translate(16,16) scale(0.054) translate(-281.25,-150)">
    <g id="8dafa8412a">
      <g clip-rule="nonzero" clip-path="url(#a48e9c6be5)">
        <path style="stroke:none;fill-rule:nonzero;fill:#20448f;fill-opacity:1;" d="M 112.625 280.953125 L 112.625 22.953125 L 348.445312 22.953125 L 348.445312 85.277344 L 333.367188 85.277344 L 333.367188 37.910156 L 127.703125 37.910156 L 127.703125 264.988281 L 333.375 252.007812 L 333.375 210.238281 L 348.457031 210.238281 L 348.457031 266.03125 Z M 112.625 280.953125"/>
      </g>
      <path style="stroke:none;fill-rule:nonzero;fill:#20448f;fill-opacity:1;" d="M 309.1875 126.070312 L 331.863281 126.070312 L 331.863281 185.890625 L 350.027344 185.890625 L 350.027344 126.070312 L 372.902344 126.070312 L 372.902344 109.21875 L 309.175781 109.21875 L 309.175781 126.070312 Z M 309.1875 126.070312"/>
      <path style="stroke:none;fill-rule:nonzero;fill:#20448f;fill-opacity:1;" d="M 440.453125 109.296875 L 419.855469 134.777344 L 399.089844 109.296875 L 383.527344 109.296875 L 383.527344 185.8125 L 401.816406 185.8125 L 401.816406 140.464844 L 417.421875 159.335938 L 422.300781 159.335938 L 437.582031 140.589844 L 437.582031 185.824219 L 455.949219 185.824219 L 455.949219 109.308594 L 440.464844 109.308594 Z M 440.453125 109.296875"/>
      <path style="stroke:none;fill-rule:nonzero;fill:#20448f;fill-opacity:1;" d="M 268.191406 109.21875 L 237.179688 109.21875 L 237.179688 185.859375 L 266.644531 185.859375 C 286.390625 185.859375 307.359375 172.429688 307.359375 147.523438 C 307.402344 121.078125 287.691406 109.21875 268.179688 109.21875 Z M 255.390625 126.070312 L 264.367188 126.070312 C 284.4375 126.070312 288.621094 137.761719 288.621094 147.554688 C 288.621094 166.257812 272.085938 169.039062 262.210938 169.039062 L 255.378906 169.039062 L 255.378906 126.070312 Z M 255.390625 126.070312"/>
      <path style="stroke:none;fill-rule:nonzero;fill:#20448f;fill-opacity:1;" d="M 212.757812 162.914062 C 208.820312 167.917969 204.183594 170.453125 198.933594 170.453125 C 186.210938 170.453125 177.316406 160.78125 177.316406 146.871094 C 177.316406 133.8125 186.414062 124.296875 198.933594 124.296875 C 203.9375 124.296875 207.796875 126.148438 211.894531 130.421875 L 213.519531 132.164062 L 227.578125 121.886719 L 225.703125 119.707031 C 218.546875 111.441406 210.019531 107.613281 198.84375 107.613281 C 175.238281 107.613281 158.691406 124.105469 158.691406 147.722656 C 158.691406 171.339844 175.195312 187.226562 198.84375 187.226562 C 211.039062 187.226562 220.914062 182.515625 227.453125 173.5625 L 229.035156 171.386719 L 214.328125 160.941406 L 212.746094 162.914062 Z M 212.757812 162.914062"/>
      <path style="stroke:none;fill-rule:nonzero;fill:#bbce0b;fill-opacity:1;" d="M 352.59375 198.277344 L 362.210938 198.277344 L 371.667969 223.882812 L 371.78125 223.882812 L 381.394531 198.277344 L 390.417969 198.277344 L 374.640625 237.355469 L 367.886719 237.355469 Z M 352.59375 198.277344"/>
      <path style="stroke:none;fill-rule:nonzero;fill:#bbce0b;fill-opacity:1;" d="M 394.734375 198.277344 L 403.160156 198.277344 L 403.160156 229.402344 L 418.765625 229.402344 L 418.765625 237.34375 L 394.722656 237.34375 L 394.722656 198.265625 Z M 394.734375 198.277344"/>
      <path style="stroke:none;fill-rule:nonzero;fill:#bbce0b;fill-opacity:1;" d="M 448.429688 208.441406 C 447.601562 207.410156 446.582031 206.625 445.359375 206.066406 C 444.167969 205.515625 442.777344 205.234375 441.195312 205.234375 C 439.613281 205.234375 438.132812 205.546875 436.761719 206.175781 C 435.429688 206.804688 434.261719 207.679688 433.25 208.824219 C 432.277344 209.925781 431.5 211.246094 430.929688 212.796875 C 430.390625 214.34375 430.121094 216.015625 430.121094 217.824219 C 430.121094 219.628906 430.390625 221.355469 430.929688 222.90625 C 431.5 224.410156 432.277344 225.742188 433.25 226.875 C 434.226562 227.976562 435.359375 228.839844 436.652344 229.46875 C 437.984375 230.097656 439.410156 230.410156 440.914062 230.410156 C 442.640625 230.410156 444.179688 230.039062 445.503906 229.3125 C 446.839844 228.570312 447.9375 227.550781 448.800781 226.226562 L 455.824219 231.578125 C 454.210938 233.898438 452.15625 235.605469 449.664062 236.703125 C 447.1875 237.804688 444.628906 238.367188 441.992188 238.367188 C 439.007812 238.367188 436.246094 237.882812 433.722656 236.929688 C 431.199219 235.976562 429.023438 234.605469 427.183594 232.84375 C 425.34375 231.039062 423.90625 228.875 422.863281 226.339844 C 421.851562 223.800781 421.347656 220.964844 421.347656 217.832031 C 421.347656 214.703125 421.851562 211.875 422.863281 209.339844 C 423.90625 206.804688 425.34375 204.652344 427.183594 202.890625 C 429.023438 201.082031 431.199219 199.703125 433.722656 198.75 C 436.246094 197.796875 438.996094 197.3125 441.992188 197.3125 C 443.070312 197.3125 444.191406 197.425781 445.347656 197.648438 C 446.535156 197.828125 447.691406 198.144531 448.800781 198.59375 C 449.957031 199.03125 451.058594 199.625 452.101562 200.355469 C 453.144531 201.09375 454.085938 201.992188 454.90625 203.058594 L 448.421875 208.464844 Z M 448.429688 208.441406"/>
    </g>
  </g>
</svg>