<svg xmlns="http://www.w3.org/2000/svg" xmlns:xlink="http://www.w3.org/1999/xlink" width="1500" zoomAndPan="magnify" viewBox="0 0 1125 449.999984" height="600" preserveAspectRatio="xMidYMid meet" version="1.2"><defs><clipPath id="0b4fe2271d"><path d="M 613 165 L 1109.320312 165 L 1109.320312 274 L 613 274 Z M 613 165 "/></clipPath><clipPath id="9e1d538060"><path d="M 535 58 L 553 58 L 553 396.582031 L 535 396.582031 Z M 535 58 "/></clipPath><clipPath id="e5d327eaec"><path d="M 15.820312 62 L 319 62 L 319 393 L 15.820312 393 Z M 15.820312 62 "/></clipPath></defs><g id="36155563bc"><g clip-rule="nonzero" clip-path="url(#0b4fe2271d)"><path style=" stroke:none;fill-rule:nonzero;fill:#20448f;fill-opacity:1;" d="M 613.339844 271.886719 L 613.339844 167.363281 L 635.46875 167.363281 L 635.46875 210.492188 L 680.371094 210.492188 L 680.371094 167.363281 L 702.4375 167.363281 L 702.4375 271.886719 L 680.371094 271.886719 L 680.371094 228.714844 L 635.46875 228.714844 L 635.46875 271.886719 Z M 738.722656 271.886719 L 715.011719 271.886719 L 751.140625 167.363281 L 779.652344 167.363281 L 815.722656 271.886719 L 792.011719 271.886719 L 765.800781 191.246094 L 764.980469 191.246094 Z M 737.242188 230.796875 L 793.234375 230.796875 L 793.234375 248.042969 L 737.242188 248.042969 Z M 915.710938 203.953125 L 893.339844 203.953125 C 892.9375 201.0625 892.101562 198.488281 890.835938 196.25 C 889.570312 193.964844 887.960938 192.023438 885.988281 190.429688 C 884.019531 188.832031 881.730469 187.609375 879.140625 186.75 C 876.578125 185.902344 873.804688 185.46875 870.808594 185.46875 C 865.402344 185.46875 860.683594 186.820312 856.652344 189.507812 C 852.640625 192.167969 849.519531 196.046875 847.300781 201.148438 C 845.085938 206.222656 843.980469 212.371094 843.980469 219.628906 C 843.980469 226.886719 845.085938 233.339844 847.300781 238.414062 C 849.546875 243.488281 852.683594 247.308594 856.710938 249.898438 C 860.726562 252.484375 865.371094 253.777344 870.652344 253.777344 C 873.617188 253.777344 876.363281 253.390625 878.882812 252.597656 C 881.441406 251.824219 883.699219 250.671875 885.671875 249.179688 C 887.644531 247.640625 889.285156 245.785156 890.578125 243.617188 C 891.902344 241.445312 892.824219 238.960938 893.339844 236.171875 L 915.710938 236.273438 C 915.136719 241.074219 913.683594 245.699219 911.367188 250.15625 C 909.078125 254.582031 906 258.546875 902.117188 262.039062 C 898.273438 265.519531 893.671875 268.261719 888.320312 270.304688 C 883.011719 272.316406 876.996094 273.324219 870.277344 273.324219 C 860.941406 273.324219 852.597656 271.210938 845.246094 267 C 837.921875 262.773438 832.136719 256.679688 827.878906 248.675781 C 823.664062 240.683594 821.550781 231 821.550781 219.628906 C 821.550781 208.261719 823.691406 198.535156 827.980469 190.542969 C 832.265625 182.550781 838.09375 176.457031 845.460938 172.277344 C 852.8125 168.050781 861.097656 165.953125 870.292969 165.953125 C 876.347656 165.953125 881.972656 166.800781 887.152344 168.511719 C 892.363281 170.207031 896.980469 172.695312 900.992188 175.957031 C 905.007812 179.1875 908.289062 183.15625 910.804688 187.839844 C 913.367188 192.539062 914.992188 197.914062 915.710938 203.964844 Z M 931.566406 271.886719 L 931.566406 167.363281 L 953.695312 167.363281 L 953.695312 213.449219 L 955.074219 213.449219 L 992.726562 167.363281 L 1019.242188 167.363281 L 980.410156 214.15625 L 1019.703125 271.871094 L 993.230469 271.871094 L 964.570312 228.898438 L 953.695312 242.164062 L 953.695312 271.871094 L 931.566406 271.871094 Z M 1086.6875 197.425781 C 1086.285156 193.316406 1084.53125 190.113281 1081.421875 187.828125 C 1078.328125 185.542969 1074.113281 184.40625 1068.804688 184.40625 C 1065.195312 184.40625 1062.144531 184.921875 1059.65625 185.945312 C 1057.164062 186.933594 1055.265625 188.316406 1053.929688 190.082031 C 1052.632812 191.851562 1051.984375 193.863281 1051.984375 196.105469 C 1051.914062 197.972656 1052.304688 199.609375 1053.167969 201.003906 C 1054.058594 202.398438 1055.265625 203.605469 1056.792969 204.625 C 1058.332031 205.617188 1060.101562 206.480469 1062.101562 207.226562 C 1064.113281 207.945312 1066.257812 208.550781 1068.53125 209.066406 L 1077.925781 211.308594 C 1082.488281 212.328125 1086.671875 213.695312 1090.5 215.390625 C 1094.3125 217.085938 1097.621094 219.183594 1100.414062 221.671875 C 1103.203125 224.15625 1105.375 227.074219 1106.902344 230.453125 C 1108.46875 233.816406 1109.277344 237.679688 1109.304688 242.035156 C 1109.277344 248.429688 1107.636719 253.976562 1104.398438 258.679688 C 1101.203125 263.335938 1096.570312 266.957031 1090.5 269.542969 C 1084.472656 272.101562 1077.207031 273.367188 1068.691406 273.367188 C 1060.171875 273.367188 1052.894531 272.070312 1046.621094 269.484375 C 1040.390625 266.898438 1035.511719 263.074219 1032.003906 258.003906 C 1028.535156 252.902344 1026.707031 246.589844 1026.535156 239.0625 L 1047.945312 239.0625 C 1048.1875 242.566406 1049.179688 245.5 1050.964844 247.839844 C 1052.777344 250.15625 1055.164062 251.910156 1058.171875 253.101562 C 1061.207031 254.25 1064.632812 254.839844 1068.445312 254.839844 C 1072.257812 254.839844 1075.453125 254.292969 1078.199219 253.203125 C 1080.992188 252.109375 1083.164062 250.601562 1084.6875 248.660156 C 1086.226562 246.722656 1086.988281 244.492188 1086.988281 241.976562 C 1086.988281 239.636719 1086.285156 237.652344 1084.890625 236.058594 C 1083.523438 234.460938 1081.523438 233.097656 1078.863281 231.976562 C 1076.242188 230.855469 1073.019531 229.835938 1069.207031 228.914062 L 1057.8125 226.054688 C 1048.992188 223.914062 1042.03125 220.566406 1036.921875 215.996094 C 1031.816406 211.4375 1029.269531 205.300781 1029.3125 197.570312 C 1029.285156 191.246094 1030.96875 185.714844 1034.375 180.984375 C 1037.816406 176.257812 1042.535156 172.5625 1048.535156 169.90625 C 1054.53125 167.246094 1061.339844 165.925781 1068.964844 165.925781 C 1076.589844 165.925781 1083.507812 167.246094 1089.292969 169.90625 C 1095.117188 172.5625 1099.652344 176.257812 1102.886719 180.984375 C 1106.125 185.714844 1107.792969 191.191406 1107.894531 197.414062 L 1086.6875 197.414062 Z M 1086.6875 197.425781 "/></g><g clip-rule="nonzero" clip-path="url(#9e1d538060)"><path style=" stroke:none;fill-rule:nonzero;fill:#20448f;fill-opacity:1;" d="M 535.191406 58.496094 L 552.453125 58.496094 L 552.453125 396.226562 L 535.191406 396.226562 Z M 535.191406 58.496094 "/></g><g clip-rule="nonzero" clip-path="url(#e5d327eaec)"><path style=" stroke:none;fill-rule:nonzero;fill:#20448f;fill-opacity:1;" d="M 15.820312 392.605469 L 15.820312 62.121094 L 318.21875 62.121094 L 318.21875 141.953125 L 298.882812 141.953125 L 298.882812 81.277344 L 35.15625 81.277344 L 35.15625 372.15625 L 298.898438 355.527344 L 298.898438 302.023438 L 318.234375 302.023438 L 318.234375 373.492188 Z M 15.820312 392.605469 "/></g><path style=" stroke:none;fill-rule:nonzero;fill:#20448f;fill-opacity:1;" d="M 267.878906 194.207031 L 296.957031 194.207031 L 296.957031 270.835938 L 320.246094 270.835938 L 320.246094 194.207031 L 349.582031 194.207031 L 349.582031 172.621094 L 267.863281 172.621094 L 267.863281 194.207031 Z M 267.878906 194.207031 "/><path style=" stroke:none;fill-rule:nonzero;fill:#20448f;fill-opacity:1;" d="M 436.207031 172.722656 L 409.792969 205.359375 L 383.164062 172.722656 L 363.207031 172.722656 L 363.207031 270.734375 L 386.660156 270.734375 L 386.660156 212.644531 L 406.671875 236.820312 L 412.929688 236.820312 L 432.523438 212.804688 L 432.523438 270.75 L 456.074219 270.75 L 456.074219 172.738281 L 436.222656 172.738281 Z M 436.207031 172.722656 "/><path style=" stroke:none;fill-rule:nonzero;fill:#20448f;fill-opacity:1;" d="M 215.308594 172.621094 L 175.542969 172.621094 L 175.542969 270.792969 L 213.324219 270.792969 C 238.644531 270.792969 265.535156 253.589844 265.535156 221.6875 C 265.589844 187.8125 240.3125 172.621094 215.292969 172.621094 Z M 198.894531 194.207031 L 210.402344 194.207031 C 236.140625 194.207031 241.507812 209.183594 241.507812 221.730469 C 241.507812 245.6875 220.300781 249.25 207.640625 249.25 L 198.878906 249.25 L 198.878906 194.207031 Z M 198.894531 194.207031 "/><path style=" stroke:none;fill-rule:nonzero;fill:#20448f;fill-opacity:1;" d="M 144.222656 241.402344 C 139.171875 247.8125 133.230469 251.0625 126.496094 251.0625 C 110.183594 251.0625 98.773438 238.671875 98.773438 220.851562 C 98.773438 204.125 110.441406 191.9375 126.496094 191.9375 C 132.914062 191.9375 137.863281 194.308594 143.113281 199.785156 L 145.199219 202.011719 L 163.226562 188.847656 L 160.824219 186.058594 C 151.644531 175.46875 140.710938 170.566406 126.382812 170.566406 C 96.113281 170.566406 74.890625 191.691406 74.890625 221.945312 C 74.890625 252.195312 96.054688 272.546875 126.382812 272.546875 C 142.019531 272.546875 154.683594 266.511719 163.070312 255.042969 L 165.097656 252.253906 L 146.238281 238.875 L 144.207031 241.402344 Z M 144.222656 241.402344 "/><path style=" stroke:none;fill-rule:nonzero;fill:#bbce0b;fill-opacity:1;" d="M 323.542969 286.703125 L 335.871094 286.703125 L 348 319.496094 L 348.144531 319.496094 L 360.472656 286.703125 L 372.042969 286.703125 L 351.8125 336.757812 L 343.152344 336.757812 Z M 323.542969 286.703125 "/><path style=" stroke:none;fill-rule:nonzero;fill:#bbce0b;fill-opacity:1;" d="M 377.582031 286.703125 L 388.386719 286.703125 L 388.386719 326.570312 L 408.398438 326.570312 L 408.398438 336.742188 L 377.566406 336.742188 L 377.566406 286.6875 Z M 377.582031 286.703125 "/><path style=" stroke:none;fill-rule:nonzero;fill:#bbce0b;fill-opacity:1;" d="M 446.4375 299.722656 C 445.371094 298.402344 444.0625 297.394531 442.496094 296.675781 C 440.96875 295.972656 439.183594 295.613281 437.15625 295.613281 C 435.128906 295.613281 433.230469 296.015625 431.472656 296.820312 C 429.761719 297.625 428.265625 298.746094 426.972656 300.210938 C 425.71875 301.621094 424.726562 303.316406 423.992188 305.296875 C 423.300781 307.28125 422.957031 309.421875 422.957031 311.738281 C 422.957031 314.050781 423.300781 316.265625 423.992188 318.246094 C 424.726562 320.171875 425.71875 321.882812 426.972656 323.335938 C 428.222656 324.742188 429.675781 325.851562 431.328125 326.65625 C 433.042969 327.460938 434.871094 327.863281 436.796875 327.863281 C 439.011719 327.863281 440.984375 327.386719 442.679688 326.453125 C 444.394531 325.503906 445.804688 324.195312 446.910156 322.5 L 455.917969 329.355469 C 453.847656 332.332031 451.214844 334.515625 448.019531 335.925781 C 444.839844 337.332031 441.558594 338.050781 438.179688 338.050781 C 434.351562 338.050781 430.8125 337.433594 427.574219 336.210938 C 424.339844 334.988281 421.546875 333.238281 419.1875 330.980469 C 416.828125 328.667969 414.988281 325.894531 413.648438 322.644531 C 412.355469 319.398438 411.707031 315.761719 411.707031 311.75 C 411.707031 307.742188 412.355469 304.121094 413.648438 300.871094 C 414.988281 297.625 416.828125 294.863281 419.1875 292.609375 C 421.546875 290.292969 424.339844 288.527344 427.574219 287.304688 C 430.8125 286.085938 434.335938 285.464844 438.179688 285.464844 C 439.558594 285.464844 441 285.609375 442.480469 285.898438 C 444.003906 286.128906 445.488281 286.53125 446.910156 287.105469 C 448.394531 287.664062 449.804688 288.425781 451.140625 289.359375 C 452.480469 290.308594 453.6875 291.460938 454.738281 292.824219 L 446.421875 299.75 Z M 446.4375 299.722656 "/></g></svg>