<svg xmlns="http://www.w3.org/2000/svg" xmlns:xlink="http://www.w3.org/1999/xlink" width="1500" zoomAndPan="magnify" viewBox="0 0 1125 449.999984" height="600" preserveAspectRatio="xMidYMid meet" version="1.2"><g id="c1b54784d2"><path style=" stroke:none;fill-rule:evenodd;fill:#d60066;fill-opacity:1;" d="M 606.09375 296.203125 C 603.558594 293.40625 582.824219 234.179688 583.277344 231.03125 C 583.601562 228.753906 584.597656 228.605469 602.941406 228.046875 L 622.265625 227.460938 L 632.878906 191.527344 C 639.214844 170.082031 644.398438 154.605469 645.730469 153.148438 C 647.816406 150.867188 649.210938 150.703125 666.425781 150.703125 C 679.769531 150.703125 685.222656 151.109375 686.09375 152.167969 C 687.257812 153.582031 683.953125 163.613281 647.382812 269.59375 C 642.722656 283.101562 637.960938 295.097656 636.800781 296.257812 C 635.015625 298.035156 632.621094 298.363281 621.371094 298.363281 C 609.921875 298.363281 607.777344 298.058594 606.09375 296.203125 Z M 606.09375 296.203125 "/><path style=" stroke:none;fill-rule:evenodd;fill:#d60066;fill-opacity:1;" d="M 568.027344 185.546875 C 564.925781 182.25 555.382812 155.25 556.390625 152.625 C 557.03125 150.957031 559.558594 150.703125 575.441406 150.703125 C 585.511719 150.703125 594.703125 151.210938 595.863281 151.832031 C 598.328125 153.148438 599.28125 155.402344 604.101562 171.339844 C 608.210938 184.925781 608.382812 186.515625 605.828125 187.492188 C 604.808594 187.882812 596.449219 188.203125 587.25 188.203125 C 571.386719 188.203125 570.398438 188.066406 568.027344 185.546875 Z M 568.027344 185.546875 "/><path style=" stroke:none;fill-rule:evenodd;fill:#d60066;fill-opacity:1;" d="M 498.664062 186.152344 C 495.25 183.289062 485.246094 154.285156 486.960938 152.21875 C 487.894531 151.097656 493.007812 150.703125 506.679688 150.703125 C 523.519531 150.703125 525.324219 150.90625 527.21875 153 C 530.296875 156.390625 538.351562 183.59375 537.039062 186.152344 C 536.109375 187.96875 533.972656 188.203125 518.546875 188.203125 C 503.652344 188.203125 500.753906 187.90625 498.664062 186.152344 Z M 498.664062 186.152344 "/><path style=" stroke:none;fill-rule:evenodd;fill:#000000;fill-opacity:1;" d="M 777.441406 285.617188 C 765.742188 283.40625 757.832031 274.910156 754.929688 261.429688 C 754.03125 257.253906 753.710938 253.550781 753.710938 247.410156 C 753.710938 235.65625 755.761719 227.214844 760.320312 220.234375 C 763.902344 214.75 768.050781 211.652344 774.460938 209.679688 C 776.855469 208.945312 777.433594 208.886719 782.328125 208.875 C 786.957031 208.863281 787.890625 208.945312 789.898438 209.523438 C 796.148438 211.324219 800.914062 215.09375 804.84375 221.335938 C 808.492188 227.136719 810.175781 233.824219 810.5625 244.0625 L 810.742188 248.847656 L 760.957031 248.847656 L 761.136719 252.585938 C 761.441406 258.914062 762.636719 263.851562 764.949219 268.332031 C 766.636719 271.59375 770.300781 275.253906 773.375 276.746094 C 776.691406 278.355469 778.566406 278.765625 783.355469 278.9375 C 787.949219 279.101562 791.308594 278.675781 794.355469 277.539062 C 796.300781 276.808594 799.511719 274.574219 802.082031 272.152344 L 804.0625 270.289062 L 809.476562 274.75 L 808.523438 275.742188 C 807.28125 277.035156 803.539062 280.136719 801.804688 281.308594 C 799.410156 282.929688 796.308594 284.320312 793.386719 285.085938 C 790.957031 285.71875 789.757812 285.84375 785.113281 285.933594 C 781.207031 286.011719 779.054688 285.921875 777.441406 285.617188 Z M 803.1875 239.988281 C 802.394531 229.285156 799.289062 222.679688 793.15625 218.675781 C 790.089844 216.671875 786.890625 215.6875 782.914062 215.523438 C 777.777344 215.3125 774.308594 216.414062 770.023438 219.617188 C 764.671875 223.621094 761.835938 230.070312 761.164062 239.769531 L 760.964844 242.695312 L 803.386719 242.695312 Z M 803.1875 239.988281 "/><path style=" stroke:none;fill-rule:evenodd;fill:#000000;fill-opacity:1;" d="M 776.898438 285.363281 C 765.035156 282.609375 757.710938 274.269531 754.867188 260.273438 C 753.683594 254.460938 753.617188 241.933594 754.738281 235.519531 C 756.554688 225.082031 761.5625 216.5625 768.234375 212.546875 C 770.1875 211.367188 774.523438 209.691406 776.652344 209.289062 C 777.476562 209.132812 780.160156 209.003906 782.613281 209.003906 C 787.875 209.003906 790.359375 209.515625 794.121094 211.375 C 798.738281 213.65625 803.027344 218.109375 805.871094 223.5625 C 808.832031 229.25 809.953125 234.542969 810.5 245.40625 L 810.675781 248.847656 L 760.757812 248.847656 L 760.921875 251.558594 C 761.339844 258.519531 762.722656 264.390625 764.9375 268.597656 C 766.296875 271.183594 770.878906 275.679688 773.375 276.875 C 776.722656 278.480469 778.144531 278.78125 783.140625 278.949219 C 792.097656 279.25 795.609375 278.046875 801.867188 272.542969 L 804.144531 270.542969 L 809.253906 274.769531 L 807.152344 276.738281 C 802.671875 280.929688 798.332031 283.546875 793.625 284.90625 C 791.734375 285.449219 790.523438 285.554688 784.96875 285.640625 C 780.4375 285.707031 778.027344 285.625 776.898438 285.363281 Z M 803.460938 241.453125 C 802.871094 235.933594 802.578125 233.992188 801.96875 231.601562 C 799.375 221.371094 792.023438 215.460938 781.886719 215.460938 C 777.414062 215.457031 774.609375 216.34375 770.703125 218.988281 C 768.566406 220.433594 765.777344 223.488281 764.628906 225.640625 C 762.707031 229.234375 761.414062 234.519531 760.929688 240.71875 L 760.777344 242.695312 L 803.59375 242.695312 Z M 803.460938 241.453125 "/><path style=" stroke:none;fill-rule:evenodd;fill:#000000;fill-opacity:1;" d="M 849.769531 284.757812 C 844.011719 283.367188 839.929688 279.160156 837.886719 272.527344 L 837.226562 270.382812 L 837.046875 215.15625 L 827.085938 215.15625 L 827.085938 209.589844 L 837.066406 209.589844 L 837.066406 185.273438 L 844.40625 185.273438 L 844.40625 209.589844 L 860.546875 209.589844 L 860.546875 215.15625 L 844.40625 215.15625 L 844.414062 240.867188 C 844.421875 255.003906 844.546875 267.507812 844.695312 268.648438 C 845.269531 273.082031 847.054688 275.925781 850.234375 277.480469 C 851.773438 278.230469 852.199219 278.296875 856.21875 278.398438 L 860.546875 278.503906 L 860.546875 285.179688 L 855.925781 285.152344 C 853.289062 285.140625 850.644531 284.96875 849.769531 284.757812 Z M 849.769531 284.757812 "/><path style=" stroke:none;fill-rule:evenodd;fill:#000000;fill-opacity:1;" d="M 897.675781 285.59375 C 890.246094 284.449219 883.050781 281.261719 878.566406 277.128906 L 876.648438 275.363281 L 879.144531 272.902344 L 881.640625 270.4375 L 883.199219 271.847656 C 889.496094 277.535156 898.011719 280.042969 908.410156 279.28125 C 912.601562 278.972656 915.726562 278.199219 918.894531 276.6875 C 924.476562 274.023438 926.878906 269.609375 926.515625 262.6875 C 926.179688 256.222656 923.410156 253.105469 916.585938 251.507812 C 915.226562 251.1875 910.597656 250.59375 906.304688 250.1875 C 895.746094 249.183594 893.265625 248.648438 888.871094 246.410156 C 884.292969 244.078125 881.109375 239.890625 880.035156 234.785156 C 879.335938 231.453125 879.589844 226.539062 880.625 223.507812 C 882.679688 217.488281 886.929688 213.167969 893.140625 210.777344 C 897.425781 209.125 899.171875 208.859375 905.601562 208.863281 C 911.992188 208.867188 914.039062 209.160156 919.0625 210.796875 C 923.316406 212.183594 929.667969 215.625 929.667969 216.542969 C 929.667969 216.707031 928.644531 217.914062 927.390625 219.222656 L 925.113281 221.601562 L 923.429688 220.464844 C 917.574219 216.511719 909.992188 214.71875 902.21875 215.449219 C 896.578125 215.980469 893.210938 217.421875 890.222656 220.574219 C 887.691406 223.242188 886.800781 226.152344 887.019531 231.03125 C 887.183594 234.730469 887.917969 236.578125 890.058594 238.679688 C 893.058594 241.625 896.714844 242.664062 906.777344 243.421875 C 917.03125 244.195312 920.121094 244.804688 924.75 246.960938 C 931.023438 249.882812 933.640625 254.578125 933.71875 263.058594 C 933.769531 268.867188 932.734375 272.148438 929.484375 276.476562 C 925.925781 281.210938 919.746094 284.5 912.296875 285.621094 C 908.71875 286.160156 901.253906 286.144531 897.675781 285.59375 Z M 897.675781 285.59375 "/><path style=" stroke:none;fill-rule:evenodd;fill:#000000;fill-opacity:1;" d="M 953.003906 203.4375 L 972.082031 203.4375 L 972.082031 285.179688 L 953.003906 285.179688 Z M 953.003906 203.4375 "/><path style=" stroke:none;fill-rule:evenodd;fill:#000000;fill-opacity:1;" d="M 953.003906 172.675781 L 972.082031 172.675781 L 972.082031 189.082031 L 953.003906 189.082031 Z M 953.003906 172.675781 "/><path style=" stroke:none;fill-rule:evenodd;fill:#000000;fill-opacity:1;" d="M 993.949219 244.453125 L 993.949219 203.4375 L 1012.734375 203.4375 L 1012.734375 212.082031 L 1016.1875 208.777344 C 1018.128906 206.917969 1022.289062 204.789062 1025.695312 203.90625 C 1037.445312 200.863281 1048.269531 205.761719 1054.1875 216.804688 C 1056.625 221.351562 1056.78125 223.285156 1057.125 253.535156 L 1057.484375 285.472656 L 1038.5625 285.472656 L 1038.5625 228.226562 L 1035.558594 224.664062 C 1031.8125 220.21875 1026.347656 219.03125 1020.632812 221.414062 C 1013.21875 224.507812 1012.734375 226.746094 1012.734375 257.875 L 1012.734375 285.472656 L 993.949219 285.472656 Z M 993.949219 244.453125 "/><path style=" stroke:none;fill-rule:evenodd;fill:#000000;fill-opacity:1;" d="M 1082.003906 253.242188 L 1082.003906 221.015625 L 1073.785156 221.015625 L 1073.785156 205.78125 L 1082.003906 205.78125 L 1082.003906 198.339844 C 1082.003906 189.378906 1083.632812 184.054688 1087.738281 179.601562 C 1092.53125 174.40625 1096.363281 172.96875 1105.425781 172.96875 L 1113.703125 172.96875 L 1113.703125 187.898438 L 1108.316406 188.503906 C 1105.355469 188.839844 1102.351562 189.691406 1101.640625 190.398438 C 1100.933594 191.105469 1100.121094 194.855469 1099.84375 198.734375 L 1099.332031 205.78125 L 1113.703125 205.78125 L 1113.703125 221.015625 L 1099.613281 221.015625 L 1099.613281 285.472656 L 1082.003906 285.472656 Z M 1082.003906 253.242188 "/><path style=" stroke:none;fill-rule:evenodd;fill:#424a50;fill-opacity:1;" d="M 440.382812 298.171875 C 435.941406 296.195312 434.710938 290.246094 438.023438 286.78125 C 439.929688 284.785156 441.738281 284.265625 446.769531 284.261719 L 450.664062 284.257812 L 450.425781 282.5 C 450.089844 279.996094 448.671875 278.871094 445.855469 278.871094 C 444.535156 278.871094 443.128906 279.175781 442.242188 279.648438 L 440.789062 280.425781 L 438.992188 278.832031 L 437.195312 277.242188 L 438.375 276.195312 C 440.203125 274.570312 443.527344 273.75 447.164062 274.027344 C 451.265625 274.335938 453.722656 275.582031 455.121094 278.066406 C 456.128906 279.859375 456.160156 280.167969 456.289062 289.335938 L 456.421875 298.761719 L 453.488281 298.761719 C 450.632812 298.761719 450.554688 298.730469 450.554688 297.722656 C 450.554688 297.15625 450.480469 296.6875 450.386719 296.6875 C 450.296875 296.6875 449.410156 297.152344 448.417969 297.71875 C 446.339844 298.902344 442.511719 299.121094 440.382812 298.171875 Z M 448.261719 293.789062 C 449.480469 293.328125 450.554688 291.199219 450.554688 289.242188 L 450.554688 287.988281 L 447.675781 287.988281 C 444.726562 287.988281 442.71875 288.488281 442.164062 289.359375 C 441.988281 289.628906 441.847656 290.539062 441.84375 291.382812 C 441.839844 292.5 442.085938 293.085938 442.757812 293.558594 C 443.800781 294.289062 446.640625 294.40625 448.261719 293.789062 Z M 448.261719 293.789062 "/><path style=" stroke:none;fill-rule:evenodd;fill:#424a50;fill-opacity:1;" d="M 419.496094 297.683594 C 415.121094 295.507812 413.003906 290.015625 414.042969 283.53125 C 414.726562 279.261719 416.402344 276.699219 419.578125 275.070312 C 422.988281 273.320312 428.671875 273.847656 431.339844 276.160156 L 432.496094 277.160156 L 430.683594 279.015625 L 428.867188 280.871094 L 427.570312 280.082031 C 425.683594 278.933594 423.101562 279.039062 421.570312 280.324219 C 420.011719 281.632812 419.210938 284.675781 419.585938 287.859375 C 419.941406 290.875 420.832031 292.484375 422.550781 293.199219 C 424.476562 294.003906 425.605469 293.9375 427.269531 292.925781 L 428.683594 292.0625 L 430.578125 293.953125 C 432.417969 295.792969 432.449219 295.863281 431.652344 296.496094 C 428.464844 299.042969 423.25 299.550781 419.496094 297.683594 Z M 419.496094 297.683594 "/><path style=" stroke:none;fill-rule:evenodd;fill:#424a50;fill-opacity:1;" d="M 401.988281 274.316406 L 407.800781 274.316406 L 407.800781 298.761719 L 401.988281 298.761719 Z M 401.988281 274.316406 "/><path style=" stroke:none;fill-rule:evenodd;fill:#424a50;fill-opacity:1;" d="M 390.207031 298.332031 C 389.550781 298.136719 388.546875 297.546875 387.976562 297.019531 C 386.070312 295.269531 385.800781 293.9375 385.800781 286.34375 L 385.800781 279.285156 L 384.554688 279.285156 C 383.335938 279.285156 383.308594 279.242188 383.308594 277.214844 C 383.308594 275.191406 383.335938 275.144531 384.554688 275.144531 L 385.800781 275.144531 L 385.800781 267.6875 L 391.609375 267.6875 L 391.609375 275.144531 L 395.761719 275.144531 L 395.761719 279.285156 L 391.609375 279.285156 L 391.609375 285.886719 C 391.609375 293.277344 391.789062 293.789062 394.339844 293.789062 L 395.761719 293.789062 L 395.761719 298.761719 L 393.582031 298.722656 C 392.382812 298.703125 390.863281 298.527344 390.207031 298.332031 Z M 390.207031 298.332031 "/><path style=" stroke:none;fill-rule:evenodd;fill:#424a50;fill-opacity:1;" d="M 361.707031 297.828125 C 356.890625 295.402344 356.746094 288.125 361.460938 285.457031 C 362.894531 284.644531 363.910156 284.460938 367.640625 284.328125 L 372.101562 284.167969 L 372.101562 282.988281 C 372.101562 281.304688 371.339844 279.863281 370.167969 279.332031 C 368.601562 278.617188 365.800781 278.789062 364 279.703125 L 362.367188 280.535156 L 360.695312 278.851562 L 359.027344 277.167969 L 360.269531 276.144531 C 364.195312 272.929688 372.820312 273.320312 376.121094 276.863281 C 377.738281 278.597656 377.914062 279.832031 377.914062 289.464844 L 377.914062 298.761719 L 375.214844 298.761719 C 372.613281 298.761719 372.515625 298.722656 372.515625 297.722656 C 372.515625 296.449219 372.320312 296.453125 370.234375 297.734375 C 367.988281 299.113281 364.34375 299.15625 361.707031 297.828125 Z M 370.410156 293.597656 C 371.820312 292.867188 372.101562 292.234375 372.101562 289.777344 L 372.101562 287.902344 L 368.589844 288.046875 C 364.703125 288.210938 363.988281 288.59375 363.554688 290.761719 C 363.160156 292.734375 364.773438 294.203125 367.328125 294.203125 C 368.378906 294.203125 369.765625 293.929688 370.410156 293.597656 Z M 370.410156 293.597656 "/><path style=" stroke:none;fill-rule:evenodd;fill:#424a50;fill-opacity:1;" d="M 318.140625 286.539062 L 318.140625 274.316406 L 320.839844 274.316406 C 323.4375 274.316406 323.535156 274.351562 323.535156 275.351562 C 323.535156 276.421875 324.105469 276.730469 324.601562 275.929688 C 325.097656 275.125 328.253906 273.917969 329.878906 273.910156 C 331.742188 273.898438 334.152344 274.832031 335.484375 276.082031 C 336.269531 276.820312 336.566406 276.890625 337.148438 276.480469 C 341.972656 273.074219 346.851562 273.121094 350.066406 276.601562 C 350.964844 277.574219 351.898438 279.089844 352.144531 279.96875 C 352.394531 280.867188 352.589844 285.332031 352.589844 290.164062 L 352.59375 298.761719 L 346.78125 298.761719 L 346.78125 290.875 C 346.78125 280.667969 346.261719 279.285156 342.433594 279.285156 C 340.414062 279.285156 338.996094 280.308594 338.488281 282.125 C 338.257812 282.957031 338.066406 287.039062 338.066406 291.199219 L 338.0625 298.761719 L 332.300781 298.761719 L 332.171875 290.023438 L 332.046875 281.285156 L 330.878906 280.285156 C 329.503906 279.105469 326.945312 278.9375 325.421875 279.9375 C 323.816406 280.984375 323.535156 282.617188 323.535156 290.949219 L 323.535156 298.761719 L 318.140625 298.761719 Z M 318.140625 286.539062 "/><path style=" stroke:none;fill-rule:evenodd;fill:#424a50;fill-opacity:1;" d="M 150.761719 168.574219 L 150.761719 151.730469 L 171.601562 151.730469 L 171.601562 154.953125 L 154.285156 154.953125 L 154.285156 166.964844 L 169.105469 166.964844 L 169.105469 169.894531 L 154.285156 169.894531 L 154.285156 182.34375 L 171.601562 182.34375 L 171.601562 185.421875 L 150.761719 185.421875 Z M 150.761719 168.574219 "/><path style=" stroke:none;fill-rule:evenodd;fill:#424a50;fill-opacity:1;" d="M 183.460938 185.566406 C 181.921875 185.320312 180.78125 184.96875 179.453125 184.320312 C 178.292969 183.757812 176.765625 182.71875 176.746094 182.480469 C 176.742188 182.433594 177.1875 181.910156 177.734375 181.320312 L 178.734375 180.242188 L 179.523438 180.863281 C 181.324219 182.285156 183.042969 182.804688 185.984375 182.824219 C 189.265625 182.847656 191.125 182.128906 191.964844 180.515625 C 192.269531 179.929688 192.378906 178.140625 192.152344 177.453125 C 191.796875 176.378906 190.851562 175.625 189.480469 175.328125 C 189.132812 175.25 187.722656 175.113281 186.351562 175.023438 C 183.394531 174.828125 182.199219 174.601562 180.957031 174.011719 C 179.707031 173.417969 178.929688 172.714844 178.394531 171.699219 C 177.042969 169.136719 177.542969 165.914062 179.574219 164.09375 C 180.402344 163.347656 182.011719 162.523438 183.246094 162.207031 C 186.621094 161.351562 191.058594 162.097656 193.941406 164 L 194.511719 164.375 L 193.460938 165.429688 L 192.414062 166.484375 L 191.589844 165.992188 C 189.964844 165.011719 188.398438 164.621094 186.101562 164.621094 C 182.730469 164.617188 181.082031 165.757812 180.882812 168.21875 C 180.792969 169.332031 181.015625 170.046875 181.683594 170.785156 C 182.464844 171.648438 183.320312 171.890625 186.824219 172.242188 C 189.933594 172.550781 191.554688 172.882812 192.617188 173.425781 C 193.589844 173.917969 194.5625 174.933594 195.027344 175.9375 C 195.414062 176.78125 195.449219 176.980469 195.441406 178.535156 C 195.433594 180.828125 195.136719 181.589844 193.703125 183.007812 C 191.796875 184.890625 189.984375 185.554688 186.496094 185.644531 C 185.285156 185.671875 183.921875 185.636719 183.460938 185.566406 Z M 183.460938 185.566406 "/><path style=" stroke:none;fill-rule:evenodd;fill:#424a50;fill-opacity:1;" d="M 208.964844 185.472656 C 205.894531 184.816406 203.296875 182.582031 202.054688 179.539062 C 201.320312 177.734375 201.0625 175.960938 201.140625 173.261719 C 201.226562 170.4375 201.496094 169.183594 202.441406 167.257812 C 202.929688 166.261719 203.304688 165.757812 204.3125 164.75 C 206.398438 162.660156 208.207031 161.9375 211.371094 161.925781 C 213.371094 161.914062 214.183594 162.085938 215.832031 162.863281 C 216.757812 163.300781 218.664062 164.765625 218.8125 165.15625 C 218.867188 165.300781 218.550781 165.726562 217.902344 166.378906 L 216.90625 167.378906 L 215.925781 166.589844 C 214.171875 165.175781 212.667969 164.726562 210.382812 164.933594 C 208.53125 165.101562 206.738281 166.171875 205.765625 167.695312 C 205.535156 168.058594 205.171875 168.882812 204.964844 169.527344 C 204.632812 170.546875 204.574219 171.023438 204.511719 173.203125 C 204.425781 176.125 204.640625 177.523438 205.417969 179.191406 C 206.894531 182.359375 210.84375 183.65625 214.214844 182.082031 C 214.710938 181.851562 215.503906 181.34375 215.976562 180.960938 L 216.839844 180.261719 L 217.878906 181.296875 L 218.917969 182.335938 L 218.558594 182.722656 C 218.023438 183.296875 216.691406 184.292969 215.773438 184.804688 C 214.242188 185.660156 211.21875 185.957031 208.964844 185.472656 Z M 208.964844 185.472656 "/><path style=" stroke:none;fill-rule:evenodd;fill:#424a50;fill-opacity:1;" d="M 231.699219 185.472656 C 228.375 184.773438 225.945312 182.289062 225.027344 178.648438 C 224.128906 175.089844 224.417969 169.871094 225.671875 167.039062 C 226.761719 164.585938 228.730469 162.898438 231.339844 162.1875 C 232.621094 161.835938 235.316406 161.832031 236.605469 162.175781 C 238.148438 162.589844 239.382812 163.28125 240.441406 164.328125 C 242.675781 166.535156 243.617188 169.703125 243.464844 174.507812 C 243.367188 177.738281 242.867188 179.828125 241.78125 181.578125 C 241.058594 182.742188 240.796875 183.046875 239.84375 183.816406 C 237.8125 185.460938 234.667969 186.101562 231.699219 185.472656 Z M 235.164062 182.636719 C 237.039062 182.28125 238.800781 180.917969 239.382812 179.363281 C 239.984375 177.753906 240.175781 176.078125 240.09375 173.117188 C 239.988281 169.375 239.535156 167.820312 238.136719 166.425781 C 236.929688 165.21875 235.082031 164.683594 232.988281 164.9375 C 231.707031 165.089844 230.65625 165.617188 229.796875 166.53125 C 228.371094 168.054688 227.882812 169.949219 227.898438 173.921875 C 227.914062 177.789062 228.40625 179.613281 229.835938 181.074219 C 231.21875 182.492188 233.054688 183.03125 235.164062 182.636719 Z M 235.164062 182.636719 "/><path style=" stroke:none;fill-rule:evenodd;fill:#424a50;fill-opacity:1;" d="M 254.703125 185.207031 C 252.695312 184.582031 251.34375 182.867188 251.003906 180.507812 C 250.914062 179.882812 250.855469 174.136719 250.851562 165.609375 L 250.851562 151.730469 L 254.078125 151.730469 L 254.078125 165.5625 C 254.078125 174.878906 254.128906 179.640625 254.234375 180.132812 C 254.449219 181.128906 254.90625 181.765625 255.6875 182.160156 C 256.226562 182.433594 256.582031 182.492188 257.703125 182.492188 L 259.066406 182.492188 L 259.066406 185.421875 L 257.195312 185.410156 C 256.082031 185.40625 255.074219 185.324219 254.703125 185.207031 Z M 254.703125 185.207031 "/><path style=" stroke:none;fill-rule:evenodd;fill:#424a50;fill-opacity:1;" d="M 269.058594 185.5 C 266.585938 185.03125 264.414062 183.355469 263.785156 181.441406 C 263.367188 180.164062 263.261719 178.9375 263.457031 177.648438 C 263.785156 175.503906 264.894531 173.972656 266.757812 173.101562 C 268.375 172.34375 269.257812 172.242188 274.09375 172.238281 L 278.476562 172.238281 L 278.414062 170.207031 C 278.351562 168.363281 278.3125 168.101562 277.945312 167.355469 C 277.101562 165.636719 275.691406 164.910156 272.96875 164.800781 C 270.171875 164.6875 268.605469 165.144531 267.089844 166.527344 L 266.308594 167.242188 L 265.292969 166.210938 L 264.277344 165.183594 L 265.28125 164.242188 C 266.378906 163.21875 267.570312 162.566406 269.046875 162.175781 C 270.53125 161.785156 274.28125 161.824219 276 162.25 C 279.238281 163.050781 281.035156 164.832031 281.605469 167.792969 C 281.773438 168.667969 281.816406 170.574219 281.816406 177.15625 L 281.816406 185.421875 L 278.441406 185.421875 L 278.441406 183.019531 L 277.960938 183.476562 C 277.261719 184.152344 275.859375 184.949219 274.769531 185.292969 C 273.515625 185.6875 270.605469 185.792969 269.058594 185.5 Z M 274.835938 182.546875 C 275.902344 182.269531 276.371094 182.039062 277.050781 181.441406 C 278.097656 180.523438 278.441406 179.3125 278.441406 176.542969 L 278.441406 174.710938 L 274 174.753906 C 269.691406 174.800781 269.539062 174.808594 268.792969 175.148438 C 267.894531 175.550781 267.109375 176.359375 266.832031 177.160156 C 266.578125 177.890625 266.578125 179.617188 266.832031 180.347656 C 267.265625 181.605469 268.558594 182.5 270.335938 182.78125 C 271.425781 182.953125 273.730469 182.832031 274.835938 182.546875 Z M 274.835938 182.546875 "/><path style=" stroke:none;fill-rule:evenodd;fill:#424a50;fill-opacity:1;" d="M 309.007812 169.90625 L 309.007812 154.574219 L 299.460938 154.574219 L 299.460938 151.675781 L 322.289062 151.675781 L 322.289062 154.574219 L 312.328125 154.574219 L 312.328125 185.234375 L 309.007812 185.234375 Z M 309.007812 169.90625 "/><path style=" stroke:none;fill-rule:evenodd;fill:#424a50;fill-opacity:1;" d="M 333.472656 185.007812 C 332.40625 184.679688 330.921875 183.769531 330.066406 182.914062 C 328.015625 180.867188 327.175781 178.167969 327.199219 173.699219 C 327.230469 167.890625 328.746094 164.863281 332.5625 163 C 334.457031 162.074219 335.136719 161.953125 337.3125 162.148438 C 342.054688 162.578125 345.230469 166.210938 345.804688 171.871094 L 346.070312 174.460938 L 330.175781 174.460938 L 330.175781 176.03125 C 330.175781 178.316406 331.75 181.148438 333.5 182.023438 C 336.175781 183.359375 340.398438 182.808594 342.664062 180.835938 C 343.226562 180.339844 343.441406 180.398438 344.242188 181.25 L 345.171875 182.234375 L 343.621094 183.507812 C 341.15625 185.535156 337.125 186.132812 333.472656 185.007812 Z M 342.621094 171.042969 C 342.609375 168.996094 341.199219 166.300781 339.644531 165.355469 C 337.738281 164.195312 334.859375 164.242188 333.039062 165.464844 C 331.386719 166.578125 330.550781 168.125 330.269531 170.601562 L 330.070312 172.390625 L 342.628906 172.390625 Z M 342.621094 171.042969 "/><path style=" stroke:none;fill-rule:evenodd;fill:#424a50;fill-opacity:1;" d="M 334.425781 154.886719 C 333.550781 153.6875 332.410156 152.105469 331.894531 151.363281 L 330.953125 150.015625 L 332.769531 150.015625 C 334.484375 150.015625 334.648438 150.121094 335.5625 151.777344 C 336.09375 152.746094 336.988281 154.332031 337.546875 155.300781 L 338.558594 157.058594 L 337.285156 157.058594 C 336.230469 157.058594 335.746094 156.691406 334.425781 154.886719 Z M 334.425781 154.886719 "/><path style=" stroke:none;fill-rule:evenodd;fill:#424a50;fill-opacity:1;" d="M 359.128906 185.082031 C 356.59375 184.140625 354.808594 182.492188 353.558594 179.957031 C 352.53125 177.871094 352.386719 177.097656 352.386719 173.839844 C 352.390625 169.351562 353.472656 166.492188 355.96875 164.359375 C 359.492188 161.351562 365.039062 161.25 368.453125 164.136719 L 369.820312 165.285156 L 368.894531 166.230469 L 367.96875 167.171875 L 366.742188 166.269531 C 365.15625 165.097656 362.523438 164.519531 360.675781 164.933594 C 356.902344 165.785156 355.519531 168.175781 355.507812 173.878906 C 355.5 177.011719 355.65625 177.945312 356.441406 179.429688 C 357.613281 181.636719 359.5625 182.75 362.265625 182.75 C 364.371094 182.75 365.515625 182.328125 366.941406 181.039062 C 367.785156 180.269531 367.816406 180.273438 368.75 181.265625 C 369.886719 182.472656 369.714844 182.824219 367.308594 184.234375 C 365.046875 185.554688 361.410156 185.933594 359.128906 185.082031 Z M 359.128906 185.082031 "/><path style=" stroke:none;fill-rule:evenodd;fill:#424a50;fill-opacity:1;" d="M 376.667969 173.632812 L 376.667969 162.03125 L 378.328125 162.03125 C 379.964844 162.03125 379.988281 162.054688 379.988281 163.554688 L 379.988281 165.078125 L 380.929688 164.195312 C 383.902344 161.40625 389.1875 161.339844 392.183594 164.054688 C 394.632812 166.277344 394.914062 167.589844 394.921875 176.84375 L 394.933594 185.234375 L 392.113281 185.234375 L 391.964844 176.824219 C 391.808594 167.75 391.640625 167.027344 389.351562 165.53125 C 388.019531 164.660156 384.1875 164.671875 382.484375 165.550781 C 380.28125 166.6875 379.988281 168.050781 379.988281 177.140625 L 379.988281 185.234375 L 376.667969 185.234375 Z M 376.667969 173.632812 "/><path style=" stroke:none;fill-rule:evenodd;fill:#424a50;fill-opacity:1;" d="M 403.648438 162.445312 L 406.554688 162.445312 L 406.554688 185.234375 L 403.648438 185.234375 Z M 403.648438 162.445312 "/><path style=" stroke:none;fill-rule:evenodd;fill:#424a50;fill-opacity:1;" d="M 403.234375 151.675781 L 406.96875 151.675781 L 406.96875 155.402344 L 403.234375 155.402344 Z M 403.234375 151.675781 "/><path style=" stroke:none;fill-rule:evenodd;fill:#424a50;fill-opacity:1;" d="M 421.398438 185.058594 C 416.816406 183.425781 414.441406 179.597656 414.441406 173.851562 C 414.441406 169.898438 415.449219 167.125 417.703125 164.875 C 420.703125 161.882812 424.839844 161.183594 428.761719 163.007812 C 431.710938 164.378906 432.113281 164.976562 430.867188 166.148438 L 429.871094 167.082031 L 428.65625 166.1875 C 426.242188 164.402344 422.640625 164.355469 420.285156 166.070312 C 418.335938 167.492188 417.5625 169.695312 417.558594 173.839844 C 417.558594 177.046875 417.703125 177.828125 418.59375 179.433594 C 419.863281 181.714844 421.753906 182.746094 424.65625 182.746094 C 426.246094 182.75 427.167969 182.484375 428.332031 181.695312 C 429.789062 180.707031 429.953125 180.683594 430.882812 181.289062 C 432.214844 182.160156 432.144531 182.449219 430.28125 183.738281 C 427.488281 185.667969 424.398438 186.128906 421.398438 185.058594 Z M 421.398438 185.058594 "/><path style=" stroke:none;fill-rule:evenodd;fill:#424a50;fill-opacity:1;" d="M 441.695312 185.070312 C 438.511719 183.886719 436.988281 181.375 437.378906 177.941406 C 437.855469 173.707031 440.183594 172.414062 447.335938 172.398438 L 452.214844 172.390625 L 452.214844 169.871094 C 452.214844 167.660156 452.070312 167.210938 451.035156 166.179688 C 448.921875 164.070312 443.824219 164.011719 441.378906 166.070312 L 440.117188 167.128906 L 439.234375 166.246094 L 438.351562 165.367188 L 439.328125 164.332031 C 442.472656 160.992188 451.355469 161.375 453.980469 164.964844 C 455.246094 166.695312 455.515625 168.835938 455.523438 177.257812 L 455.535156 185.234375 L 453.875 185.234375 C 452.371094 185.234375 452.214844 185.132812 452.214844 184.179688 L 452.214844 183.128906 L 450.328125 184.230469 C 448.015625 185.585938 444.101562 185.964844 441.695312 185.070312 Z M 450.207031 182.011719 C 451.707031 181.140625 452.214844 179.855469 452.214844 176.929688 L 452.214844 174.460938 L 448.375 174.464844 C 441.921875 174.46875 440.175781 175.414062 440.175781 178.90625 C 440.175781 180.921875 441.121094 182.160156 442.96875 182.566406 C 443.601562 182.707031 444.304688 182.890625 444.535156 182.972656 C 445.367188 183.273438 449.128906 182.636719 450.207031 182.011719 Z M 450.207031 182.011719 "/><path style=" stroke:none;fill-rule:evenodd;fill:#424a50;fill-opacity:1;" d="M 441.824219 241.605469 C 437.785156 240.382812 435.914062 235.429688 438.207031 232.035156 C 439.851562 229.59375 441.246094 229.089844 447.035156 228.839844 L 452.214844 228.617188 L 452.214844 226.457031 C 452.214844 223.816406 451.199219 222.328125 448.976562 221.710938 C 445.820312 220.835938 442.945312 221.324219 441.101562 223.046875 L 440.15625 223.929688 L 439.230469 222.988281 L 438.308594 222.046875 L 439.90625 220.652344 C 441.148438 219.570312 442.023438 219.191406 443.847656 218.964844 C 446.84375 218.585938 450.988281 219.285156 452.617188 220.445312 C 455.125 222.226562 455.3125 223.054688 455.460938 232.984375 L 455.59375 241.996094 L 453.902344 241.996094 C 452.285156 241.996094 452.214844 241.941406 452.214844 240.691406 C 452.214844 239.460938 452.167969 239.421875 451.472656 240.054688 C 449.582031 241.761719 444.847656 242.523438 441.824219 241.609375 Z M 448.976562 239.082031 C 451.386719 238.414062 452.214844 237.027344 452.214844 233.65625 L 452.214844 230.808594 L 449.203125 230.835938 C 442.554688 230.890625 440.175781 232 440.175781 235.054688 C 440.175781 235.941406 440.378906 237.042969 440.625 237.5 C 441.570312 239.261719 445.582031 240.023438 448.976562 239.082031 Z M 448.976562 239.082031 "/><path style=" stroke:none;fill-rule:evenodd;fill:#424a50;fill-opacity:1;" d="M 426.894531 219.210938 L 429.800781 219.210938 L 429.800781 241.996094 L 426.894531 241.996094 Z M 426.894531 219.210938 "/><path style=" stroke:none;fill-rule:evenodd;fill:#424a50;fill-opacity:1;" d="M 406.96875 230.601562 L 406.96875 219.210938 L 408.421875 219.210938 C 409.757812 219.210938 409.875 219.308594 409.875 220.453125 C 409.875 221.953125 410.128906 221.992188 411.511719 220.714844 C 412.796875 219.53125 414.871094 218.792969 416.890625 218.804688 C 418.472656 218.8125 421.914062 220.164062 421.914062 220.773438 C 421.914062 220.972656 421.464844 221.558594 420.914062 222.074219 C 419.949219 222.980469 419.878906 222.984375 418.8125 222.289062 C 417.445312 221.394531 414.523438 221.289062 413.035156 222.082031 C 412.421875 222.410156 411.507812 223.34375 411.003906 224.15625 C 410.148438 225.527344 410.074219 226.214844 409.949219 233.8125 L 409.8125 241.996094 L 406.96875 241.996094 Z M 406.96875 230.601562 "/><path style=" stroke:none;fill-rule:evenodd;fill:#424a50;fill-opacity:1;" d="M 426.894531 208.4375 L 430.214844 208.4375 L 430.214844 212.164062 L 426.894531 212.164062 Z M 426.894531 208.4375 "/><path style=" stroke:none;fill-rule:evenodd;fill:#424a50;fill-opacity:1;" d="M 386.835938 241.558594 C 384.9375 241 382.660156 238.902344 381.582031 236.714844 C 380.75 235.027344 380.613281 234.128906 380.617188 230.394531 C 380.625 226.488281 380.742188 225.828125 381.738281 223.925781 C 383.730469 220.132812 386.816406 218.457031 390.925781 218.941406 C 395.523438 219.484375 398.566406 222.960938 398.984375 228.15625 L 399.195312 230.792969 L 383.515625 231.019531 L 383.664062 232.882812 C 383.746094 233.90625 384.179688 235.460938 384.625 236.332031 C 386.433594 239.875 392.558594 240.539062 395.863281 237.554688 C 396.570312 236.914062 396.679688 236.929688 397.539062 237.800781 L 398.460938 238.730469 L 397.132812 239.921875 C 396.402344 240.582031 395.09375 241.3125 394.226562 241.554688 C 392.363281 242.070312 388.597656 242.074219 386.835938 241.558594 Z M 396 226.980469 C 395.417969 223.351562 393.144531 221.28125 389.738281 221.28125 C 386.382812 221.28125 384.09375 223.390625 383.5625 226.976562 L 383.300781 228.738281 L 396.28125 228.738281 Z M 396 226.980469 "/><path style=" stroke:none;fill-rule:evenodd;fill:#424a50;fill-opacity:1;" d="M 358.402344 250.492188 C 358.402344 249.078125 358.445312 249.039062 360.054688 249.039062 C 361.976562 249.039062 362.332031 248.625 364.019531 244.378906 L 365.132812 241.582031 L 360.992188 230.394531 L 356.851562 219.210938 L 359.976562 219.210938 L 361.691406 224.078125 C 362.632812 226.753906 364.078125 230.855469 364.898438 233.183594 C 365.722656 235.515625 366.527344 237.339844 366.691406 237.242188 C 366.855469 237.140625 368.355469 233.039062 370.019531 228.132812 L 373.050781 219.210938 L 376.214844 219.210938 L 374.820312 223.042969 C 368.238281 241.085938 365.394531 248.515625 364.730469 249.425781 C 363.722656 250.800781 361.464844 251.941406 359.753906 251.941406 C 358.488281 251.941406 358.402344 251.851562 358.402344 250.492188 Z M 358.402344 250.492188 "/><path style=" stroke:none;fill-rule:evenodd;fill:#424a50;fill-opacity:1;" d="M 333.5 230.601562 L 333.5 219.210938 L 335.160156 219.210938 C 336.746094 219.210938 336.820312 219.265625 336.820312 220.523438 L 336.820312 221.839844 L 337.757812 220.957031 C 341.09375 217.832031 347.128906 218.246094 349.835938 221.789062 C 351.359375 223.785156 351.761719 226.503906 351.761719 234.804688 L 351.761719 241.996094 L 348.441406 241.996094 L 348.433594 233.605469 C 348.429688 224.605469 348.289062 223.882812 346.277344 222.390625 C 345.453125 221.78125 344.507812 221.558594 342.746094 221.558594 C 339.914062 221.558594 338.726562 222.101562 337.628906 223.898438 C 336.898438 225.089844 336.820312 226.03125 336.820312 233.605469 L 336.820312 241.996094 L 333.496094 241.996094 Z M 333.5 230.601562 "/><path style=" stroke:none;fill-rule:evenodd;fill:#424a50;fill-opacity:1;" d="M 321.460938 219.210938 L 324.78125 219.210938 L 324.78125 241.996094 L 321.460938 241.996094 Z M 321.460938 219.210938 "/><path style=" stroke:none;fill-rule:evenodd;fill:#424a50;fill-opacity:1;" d="M 321.460938 208.4375 L 324.78125 208.4375 L 324.78125 212.164062 L 321.460938 212.164062 Z M 321.460938 208.4375 "/><path style=" stroke:none;fill-rule:evenodd;fill:#424a50;fill-opacity:1;" d="M 298.421875 251.679688 C 297.738281 251.300781 296.765625 250.671875 296.261719 250.28125 L 295.34375 249.570312 L 297.3125 247.71875 L 298.605469 248.671875 C 300.453125 250.035156 304.539062 250.242188 306.417969 249.066406 C 308.730469 247.617188 309.417969 246.003906 309.421875 242.023438 L 309.421875 238.527344 L 308.28125 239.589844 C 306.511719 241.238281 305.261719 241.722656 302.785156 241.71875 C 300.15625 241.714844 298.371094 240.929688 296.824219 239.09375 C 295.25 237.226562 294.699219 234.875 294.695312 229.980469 C 294.6875 225.96875 294.785156 225.4375 295.933594 223.148438 C 297.363281 220.300781 298.765625 219.300781 301.855469 218.9375 C 304.273438 218.652344 306.441406 219.265625 308.1875 220.730469 L 309.421875 221.769531 L 309.421875 220.488281 C 309.421875 219.269531 309.503906 219.210938 311.105469 219.210938 L 312.785156 219.210938 L 312.660156 232.570312 L 312.535156 245.933594 L 311.371094 247.910156 C 310.730469 249 309.4375 250.398438 308.496094 251.019531 C 307.019531 251.996094 306.308594 252.164062 303.226562 252.257812 C 300.535156 252.335938 299.363281 252.195312 298.421875 251.679688 Z M 306.335938 238.492188 C 308.5625 237.5625 309.402344 235.320312 309.414062 230.277344 C 309.417969 227.753906 309.207031 225.710938 308.851562 224.859375 C 307.042969 220.542969 300.6875 220.21875 298.527344 224.335938 C 297.78125 225.761719 297.632812 226.738281 297.636719 230.1875 C 297.640625 233.097656 297.84375 234.792969 298.320312 235.875 C 299.570312 238.734375 303.042969 239.863281 306.335938 238.492188 Z M 306.335938 238.492188 "/><path style=" stroke:none;fill-rule:evenodd;fill:#424a50;fill-opacity:1;" d="M 268.746094 230.601562 L 268.746094 219.210938 L 270.40625 219.210938 C 271.984375 219.210938 272.066406 219.273438 272.066406 220.488281 L 272.066406 221.769531 L 273.324219 220.710938 C 277.457031 217.238281 283.964844 218.675781 286.222656 223.558594 C 286.886719 224.996094 286.992188 226.335938 287 233.605469 L 287.007812 241.996094 L 284.1875 241.996094 L 284.042969 233.589844 C 283.882812 224.484375 283.722656 223.792969 281.382812 222.265625 C 279.984375 221.347656 276.390625 221.339844 274.667969 222.246094 C 272.277344 223.503906 272.066406 224.441406 272.066406 233.691406 L 272.066406 241.996094 L 268.746094 241.996094 Z M 268.746094 230.601562 "/><path style=" stroke:none;fill-rule:evenodd;fill:#424a50;fill-opacity:1;" d="M 240.933594 225.21875 L 240.933594 208.4375 L 261.6875 208.4375 L 261.6875 211.335938 L 244.253906 211.335938 L 244.253906 223.765625 L 258.78125 223.765625 L 258.78125 226.253906 L 244.253906 226.253906 L 244.253906 239.097656 L 261.6875 239.097656 L 261.6875 241.996094 L 240.933594 241.996094 Z M 240.933594 225.21875 "/><path style=" stroke:none;fill-rule:evenodd;fill:#424a50;fill-opacity:1;" d="M 227.652344 211.957031 L 227.652344 208.4375 L 231.386719 208.4375 L 231.386719 210.460938 C 231.386719 212.296875 231.230469 212.625 229.726562 213.980469 C 228.8125 214.804688 227.96875 215.480469 227.855469 215.480469 C 227.742188 215.480469 227.652344 213.894531 227.652344 211.957031 Z M 227.652344 211.957031 "/><path style=" stroke:none;fill-rule:evenodd;fill:#424a50;fill-opacity:1;" d="M 205.421875 241.4375 C 203.773438 240.691406 202.0625 238.632812 201.488281 236.703125 C 200.097656 232.027344 200.742188 224.503906 202.78125 221.644531 C 205.136719 218.339844 211.890625 217.90625 214.589844 220.882812 C 214.996094 221.328125 215.484375 221.695312 215.675781 221.695312 C 215.871094 221.695312 216.027344 218.710938 216.027344 215.066406 L 216.027344 208.4375 L 218.933594 208.4375 L 218.933594 241.996094 L 217.480469 241.996094 C 216.097656 241.996094 216.027344 241.929688 216.027344 240.546875 C 216.027344 239.75 215.921875 239.097656 215.796875 239.097656 C 215.667969 239.097656 214.816406 239.699219 213.902344 240.429688 C 212.457031 241.589844 211.871094 241.78125 209.460938 241.886719 C 207.742188 241.964844 206.207031 241.792969 205.421875 241.4375 Z M 212.523438 238.851562 C 214.734375 237.804688 215.746094 235.246094 215.777344 230.640625 C 215.804688 226.273438 215.210938 224.199219 213.523438 222.785156 C 210.738281 220.441406 206.117188 221.332031 204.5625 224.511719 C 203.417969 226.84375 203.46875 234.132812 204.644531 236.402344 C 206.101562 239.222656 209.503906 240.28125 212.523438 238.851562 Z M 212.523438 238.851562 "/><path style=" stroke:none;fill-rule:evenodd;fill:#424a50;fill-opacity:1;" d="M 169.953125 230.601562 L 169.953125 219.210938 L 171.40625 219.210938 C 172.742188 219.210938 172.859375 219.308594 172.859375 220.453125 C 172.859375 221.964844 173.242188 222.015625 174.519531 220.660156 C 175.597656 219.515625 177.6875 218.796875 179.914062 218.804688 C 181.464844 218.8125 184.898438 220.167969 184.898438 220.773438 C 184.898438 220.972656 184.445312 221.558594 183.898438 222.074219 C 182.929688 222.980469 182.867188 222.988281 181.789062 222.28125 C 180.460938 221.414062 177.433594 221.328125 175.957031 222.117188 C 175.378906 222.425781 174.492188 223.34375 173.984375 224.15625 C 173.132812 225.527344 173.058594 226.214844 172.929688 233.8125 L 172.796875 241.996094 L 169.953125 241.996094 Z M 169.953125 230.601562 "/><path style=" stroke:none;fill-rule:evenodd;fill:#424a50;fill-opacity:1;" d="M 148.367188 240.890625 C 146.410156 239.886719 145.910156 239.371094 144.867188 237.285156 C 143.285156 234.125 142.925781 229.289062 144 225.605469 C 146.589844 216.710938 158.9375 216.546875 161.507812 225.371094 C 162.5 228.78125 162.144531 234.632812 160.78125 237.273438 C 159.246094 240.25 157.042969 241.640625 153.492188 241.875 C 150.980469 242.042969 150.386719 241.929688 148.367188 240.890625 Z M 155.671875 238.664062 C 157.949219 237.5625 158.832031 235.71875 159.078125 231.546875 C 159.414062 225.859375 157.898438 222.582031 154.511719 221.671875 C 151.527344 220.871094 147.984375 222.539062 147.183594 225.121094 C 145.996094 228.933594 146.34375 234.9375 147.871094 237.019531 C 148.835938 238.335938 151.113281 239.511719 152.699219 239.511719 C 153.371094 239.511719 154.707031 239.128906 155.671875 238.664062 Z M 155.671875 238.664062 "/><path style=" stroke:none;fill-rule:evenodd;fill:#424a50;fill-opacity:1;" d="M 132.59375 219.210938 L 135.5 219.210938 L 135.5 241.996094 L 132.59375 241.996094 Z M 132.59375 219.210938 "/><path style=" stroke:none;fill-rule:evenodd;fill:#424a50;fill-opacity:1;" d="M 112.671875 230.601562 L 112.671875 219.210938 L 114.125 219.210938 C 115.460938 219.210938 115.578125 219.308594 115.578125 220.453125 C 115.578125 221.957031 115.652344 221.96875 117.0625 220.664062 C 118.300781 219.519531 120.433594 218.800781 122.605469 218.796875 C 124.027344 218.796875 127.613281 220.25 127.613281 220.832031 C 127.613281 221 127.164062 221.558594 126.617188 222.074219 C 125.644531 222.984375 125.589844 222.988281 124.492188 222.273438 C 122.921875 221.246094 119.726562 221.34375 118.148438 222.46875 C 115.851562 224.101562 115.578125 225.335938 115.578125 234.085938 L 115.578125 241.996094 L 112.671875 241.996094 Z M 112.671875 230.601562 "/><path style=" stroke:none;fill-rule:evenodd;fill:#424a50;fill-opacity:1;" d="M 92.125 241.375 C 88.402344 240.0625 86.105469 235.867188 86.105469 230.394531 C 86.105469 222.855469 90.367188 218.207031 96.601562 218.941406 C 101.402344 219.503906 104.714844 223.523438 104.765625 228.832031 L 104.785156 230.792969 L 97 230.90625 L 89.21875 231.019531 L 89.339844 232.882812 C 89.515625 235.644531 90.625 237.492188 92.753906 238.578125 C 95.597656 240.03125 99.304688 239.597656 101.566406 237.554688 C 102.273438 236.914062 102.382812 236.933594 103.242188 237.804688 L 104.160156 238.742188 L 102.796875 239.894531 C 100.339844 241.972656 95.652344 242.621094 92.125 241.375 Z M 101.667969 226.976562 C 101.078125 223.320312 98.851562 221.28125 95.445312 221.28125 C 92.039062 221.28125 89.8125 223.320312 89.222656 226.976562 L 88.9375 228.738281 L 101.953125 228.738281 Z M 101.667969 226.976562 "/><path style=" stroke:none;fill-rule:evenodd;fill:#424a50;fill-opacity:1;" d="M 61.199219 235.78125 L 61.199219 219.210938 L 62.859375 219.210938 C 64.4375 219.210938 64.519531 219.273438 64.519531 220.488281 L 64.519531 221.769531 L 65.777344 220.710938 C 68.707031 218.25 73.8125 218.203125 76.496094 220.613281 C 78.546875 222.457031 79.207031 224.472656 79.386719 229.445312 C 79.636719 236.40625 78.242188 239.921875 74.644531 241.421875 C 71.820312 242.601562 67.640625 241.875 65.460938 239.832031 L 64.519531 238.953125 L 64.519531 252.355469 L 61.199219 252.355469 Z M 73.996094 238.394531 C 75.796875 237.070312 76.601562 234.15625 76.425781 229.566406 C 76.238281 224.636719 75.570312 223.1875 72.957031 222.035156 C 71.605469 221.4375 70.652344 221.28125 69.5625 221.480469 C 65.875 222.152344 64.542969 224.488281 64.53125 230.304688 C 64.519531 235.285156 65.636719 238.089844 68.050781 239.140625 C 69.375 239.71875 72.773438 239.292969 73.996094 238.394531 Z M 73.996094 238.394531 "/><path style=" stroke:none;fill-rule:evenodd;fill:#424a50;fill-opacity:1;" d="M 38.390625 241.074219 C 37.125 240.398438 36.246094 239.523438 35.589844 238.285156 C 34.679688 236.570312 34.632812 236.0625 34.632812 227.84375 L 34.632812 219.210938 L 37.539062 219.210938 L 37.542969 227.390625 C 37.542969 234.867188 37.617188 235.695312 38.378906 236.945312 C 39.910156 239.453125 44.21875 240.253906 46.863281 238.523438 C 49.027344 237.109375 49.324219 235.824219 49.503906 227.183594 L 49.664062 219.210938 L 52.484375 219.210938 L 52.484375 241.996094 L 51.03125 241.996094 C 49.691406 241.996094 49.578125 241.898438 49.578125 240.753906 C 49.578125 239.230469 49.417969 239.222656 47.367188 240.640625 C 45.011719 242.269531 40.992188 242.464844 38.390625 241.074219 Z M 38.390625 241.074219 "/><path style=" stroke:none;fill-rule:evenodd;fill:#424a50;fill-opacity:1;" d="M 10.679688 241.394531 C 8.757812 240.796875 5.363281 238.929688 4.933594 238.234375 C 4.785156 237.992188 5.066406 237.363281 5.5625 236.835938 L 6.464844 235.875 L 8.789062 237.273438 C 14.832031 240.90625 22.503906 239.503906 23.847656 234.515625 C 24.589844 231.769531 23.355469 228.597656 21.191406 227.695312 C 20.449219 227.386719 18.078125 226.839844 15.925781 226.476562 C 10.785156 225.617188 8.789062 224.84375 7.28125 223.128906 C 6.070312 221.753906 5.171875 219.457031 5.164062 217.730469 C 5.160156 215.808594 6.433594 212.71875 7.746094 211.476562 C 10.234375 209.117188 11.609375 208.644531 15.957031 208.644531 C 19.386719 208.644531 20.195312 208.789062 22.183594 209.753906 C 25.8125 211.515625 25.839844 211.546875 24.734375 212.71875 L 23.78125 213.734375 L 21.378906 212.496094 C 18.339844 210.929688 13.980469 210.71875 11.734375 212.027344 C 9.730469 213.195312 8.484375 215.253906 8.484375 217.386719 C 8.484375 221.269531 10.109375 222.578125 16.449219 223.792969 C 23.742188 225.191406 24.925781 225.808594 26.378906 228.945312 C 28.046875 232.554688 26.753906 237.773438 23.675781 239.851562 C 20.621094 241.914062 14.621094 242.625 10.679688 241.394531 Z M 10.679688 241.394531 "/><path style=" stroke:none;fill-rule:evenodd;fill:#424a50;fill-opacity:1;" d="M 132.59375 208.4375 L 135.914062 208.4375 L 135.914062 212.164062 L 132.59375 212.164062 Z M 132.59375 208.4375 "/><path style=" stroke:none;fill-rule:evenodd;fill:#424a50;fill-opacity:1;" d="M 212.707031 265.199219 L 218.933594 265.199219 L 218.933594 298.761719 L 212.707031 298.761719 Z M 212.707031 265.199219 "/><path style=" stroke:none;fill-rule:evenodd;fill:#424a50;fill-opacity:1;" d="M 226.820312 286.539062 L 226.820312 274.316406 L 229.726562 274.316406 C 232.554688 274.316406 232.632812 274.34375 232.632812 275.355469 L 232.632812 276.398438 L 234.367188 275.253906 C 235.824219 274.289062 236.539062 274.109375 238.859375 274.109375 C 242.378906 274.109375 244.511719 275.375 245.96875 278.328125 C 246.898438 280.214844 246.960938 280.828125 247.089844 289.542969 L 247.230469 298.761719 L 241.347656 298.761719 L 241.34375 291.613281 C 241.339844 283.070312 241.148438 281.683594 239.785156 280.324219 C 238.238281 278.78125 235.484375 278.859375 233.84375 280.496094 L 232.632812 281.710938 L 232.632812 298.761719 L 226.820312 298.761719 Z M 226.820312 286.539062 "/><path style=" stroke:none;fill-rule:evenodd;fill:#424a50;fill-opacity:1;" d="M 255.046875 289.023438 L 255.046875 279.285156 L 252.140625 279.285156 L 252.140625 275.144531 L 255.046875 275.144531 L 255.046875 272.304688 C 255.046875 270.042969 255.234375 269.1875 255.980469 268.097656 C 257.554688 265.785156 258.824219 265.117188 262.066406 264.882812 L 265.007812 264.675781 L 265.007812 269.757812 L 263.371094 269.757812 C 261.332031 269.757812 260.441406 270.855469 260.441406 273.371094 L 260.441406 275.144531 L 265.007812 275.144531 L 265.007812 279.285156 L 260.441406 279.285156 L 260.441406 298.761719 L 255.046875 298.761719 Z M 255.046875 289.023438 "/><path style=" stroke:none;fill-rule:evenodd;fill:#424a50;fill-opacity:1;" d="M 275.179688 297.972656 C 273.097656 297.007812 271.066406 294.898438 270.179688 292.777344 C 269.21875 290.476562 269.226562 283.441406 270.199219 280.527344 C 272.648438 273.164062 282.875 271.628906 287.660156 277.902344 C 290.011719 280.984375 290.636719 288.902344 288.871094 293.28125 C 288.019531 295.390625 285.554688 297.613281 283.332031 298.28125 C 280.910156 299.003906 277.09375 298.859375 275.179688 297.972656 Z M 282.722656 292.378906 C 283.800781 291.125 284.328125 287.675781 283.9375 284.382812 C 283.496094 280.613281 282.449219 279.320312 279.820312 279.300781 C 276.476562 279.273438 275.386719 281.03125 275.386719 286.460938 C 275.386719 290.585938 275.914062 292.34375 277.402344 293.183594 C 278.992188 294.078125 281.597656 293.683594 282.722656 292.378906 Z M 282.722656 292.378906 "/><path style=" stroke:none;fill-rule:evenodd;fill:#424a50;fill-opacity:1;" d="M 296.140625 286.539062 L 296.140625 274.316406 L 301.953125 274.316406 L 301.953125 276.957031 L 303.09375 275.890625 C 304.632812 274.457031 307.039062 273.746094 309.300781 274.054688 C 311.011719 274.289062 313.574219 275.433594 313.574219 275.964844 C 313.574219 276.089844 312.71875 277.167969 311.675781 278.359375 C 309.796875 280.503906 309.773438 280.515625 308.585938 279.902344 C 306.039062 278.589844 303.230469 279.476562 302.398438 281.863281 C 302.140625 282.597656 301.953125 286.449219 301.953125 290.949219 L 301.953125 298.761719 L 296.140625 298.761719 Z M 296.140625 286.539062 "/><path style=" stroke:none;fill-rule:evenodd;fill:#424a50;fill-opacity:1;" d="M 365.253906 267.207031 C 364.339844 265.804688 363.246094 264.128906 362.824219 263.480469 L 362.058594 262.300781 L 367.820312 262.300781 L 369.132812 265.640625 C 369.851562 267.476562 370.441406 269.15625 370.441406 269.371094 C 370.441406 269.582031 369.648438 269.753906 368.675781 269.753906 C 366.976562 269.75 366.855469 269.660156 365.253906 267.207031 Z M 365.253906 267.207031 "/><path style=" stroke:none;fill-rule:evenodd;fill:#424a50;fill-opacity:1;" d="M 401.625 264.996094 L 407.761719 264.996094 L 407.761719 270.007812 L 401.625 270.007812 Z M 401.625 264.996094 "/></g></svg>