<svg xmlns="http://www.w3.org/2000/svg" xmlns:xlink="http://www.w3.org/1999/xlink" width="1500" zoomAndPan="magnify" viewBox="0 0 1125 449.999984" height="600" preserveAspectRatio="xMidYMid meet" version="1.2"><defs><clipPath id="a46d05197b"><path d="M 261.738281 197.675781 L 798.828125 197.675781 L 798.828125 276.199219 L 261.738281 276.199219 Z M 261.738281 197.675781 "/></clipPath><clipPath id="3e72f8e43c"><path d="M 301 197.675781 L 759.371094 197.675781 C 781.054688 197.675781 798.632812 215.253906 798.632812 236.9375 C 798.632812 258.621094 781.054688 276.199219 759.371094 276.199219 L 301 276.199219 C 279.316406 276.199219 261.738281 258.621094 261.738281 236.9375 C 261.738281 215.253906 279.316406 197.675781 301 197.675781 Z M 301 197.675781 "/></clipPath><clipPath id="2df7da0c9b"><path d="M 25.429688 115 L 258 115 L 258 335 L 25.429688 335 Z M 25.429688 115 "/></clipPath><clipPath id="ff37a64a62"><path d="M 991 165 L 1099.429688 165 L 1099.429688 278 L 991 278 Z M 991 165 "/></clipPath></defs><g id="7f0a999ff8"><g clip-rule="nonzero" clip-path="url(#a46d05197b)"><g clip-rule="nonzero" clip-path="url(#3e72f8e43c)"><path style=" stroke:none;fill-rule:nonzero;fill:#ffffff;fill-opacity:1;" d="M 261.738281 197.675781 L 798.523438 197.675781 L 798.523438 276.199219 L 261.738281 276.199219 Z M 261.738281 197.675781 "/></g></g><g clip-rule="nonzero" clip-path="url(#2df7da0c9b)"><path style=" stroke:none;fill-rule:evenodd;fill:#0067b8;fill-opacity:1;" d="M 169.746094 115.210938 C 159 115.210938 149.019531 117.511719 141.34375 120.585938 C 134.433594 117.511719 123.6875 115.210938 112.941406 115.210938 C 66.882812 115.210938 25.429688 158.964844 25.429688 218.839844 C 25.429688 284.089844 79.164062 334.753906 141.34375 334.753906 C 203.523438 334.753906 257.257812 284.089844 257.257812 218.839844 C 257.257812 158.964844 215.804688 115.210938 169.746094 115.210938 Z M 141.34375 150.523438 C 150.554688 155.894531 162.070312 171.25 162.070312 188.902344 C 162.070312 201.953125 153.625 211.933594 141.34375 211.933594 C 129.0625 211.933594 120.617188 201.953125 120.617188 188.902344 C 120.617188 171.25 132.898438 155.894531 141.34375 150.523438 Z M 141.34375 306.351562 C 93.75 306.351562 53.832031 267.96875 53.832031 218.074219 C 53.832031 172.785156 86.074219 142.078125 112.171875 143.613281 C 99.890625 155.894531 92.214844 172.785156 92.214844 190.4375 C 92.214844 219.609375 115.242188 240.335938 141.34375 240.335938 C 167.445312 240.335938 190.472656 219.609375 190.472656 190.4375 C 190.472656 173.550781 182.796875 155.894531 171.28125 143.613281 C 196.613281 142.84375 229.621094 173.550781 229.621094 218.074219 C 228.855469 267.96875 189.703125 306.351562 141.34375 306.351562 Z M 141.34375 306.351562 "/></g><path style=" stroke:none;fill-rule:nonzero;fill:#0067b8;fill-opacity:1;" d="M 424.601562 165.105469 L 424.601562 188.902344 L 460.679688 188.902344 L 460.679688 278.71875 L 486.78125 278.71875 L 486.78125 188.902344 L 522.859375 188.902344 L 522.859375 165.105469 Z M 424.601562 165.105469 "/><path style=" stroke:none;fill-rule:nonzero;fill:#0067b8;fill-opacity:1;" d="M 849.105469 165.105469 L 783.855469 165.105469 L 783.855469 188.902344 L 846.800781 188.902344 C 856.011719 188.902344 859.851562 193.507812 859.851562 204.257812 L 859.851562 208.09375 L 807.652344 208.09375 C 787.695312 208.09375 777.714844 218.074219 777.714844 240.335938 L 777.714844 245.707031 C 777.714844 268.738281 787.695312 277.949219 808.417969 277.949219 L 885.183594 277.949219 L 885.183594 203.488281 C 885.949219 175.855469 876.738281 165.105469 849.105469 165.105469 Z M 811.492188 254.152344 C 807.652344 254.152344 803.046875 251.851562 803.046875 242.636719 C 803.046875 233.425781 807.652344 231.125 811.492188 231.125 L 859.851562 231.125 L 859.851562 254.152344 Z M 811.492188 254.152344 "/><g clip-rule="nonzero" clip-path="url(#ff37a64a62)"><path style=" stroke:none;fill-rule:nonzero;fill:#0067b8;fill-opacity:1;" d="M 1063.273438 165.105469 L 998.027344 165.105469 L 998.027344 188.902344 L 1060.972656 188.902344 C 1070.183594 188.902344 1074.023438 193.507812 1074.023438 204.257812 L 1074.023438 208.09375 L 1021.824219 208.09375 C 1001.863281 208.09375 991.882812 218.074219 991.882812 240.335938 L 991.882812 245.707031 C 991.882812 268.738281 1001.863281 277.949219 1022.589844 277.949219 L 1099.355469 277.949219 L 1099.355469 203.488281 C 1100.121094 175.855469 1090.910156 165.105469 1063.273438 165.105469 Z M 1025.660156 254.152344 C 1021.824219 254.152344 1017.214844 251.851562 1017.214844 242.636719 C 1017.214844 233.425781 1021.824219 231.125 1025.660156 231.125 L 1074.023438 231.125 L 1074.023438 254.152344 Z M 1025.660156 254.152344 "/></g><path style=" stroke:none;fill-rule:nonzero;fill:#0067b8;fill-opacity:1;" d="M 531.304688 165.105469 L 531.304688 188.902344 L 567.382812 188.902344 L 567.382812 278.71875 L 593.480469 278.71875 L 593.480469 188.902344 L 629.558594 188.902344 L 629.558594 165.105469 Z M 531.304688 165.105469 "/><path style=" stroke:none;fill-rule:nonzero;fill:#0067b8;fill-opacity:1;" d="M 891.324219 165.105469 L 891.324219 188.902344 L 927.402344 188.902344 L 927.402344 278.71875 L 953.503906 278.71875 L 953.503906 188.902344 L 989.582031 188.902344 L 989.582031 165.105469 Z M 891.324219 165.105469 "/><path style=" stroke:none;fill-rule:nonzero;fill:#0067b8;fill-opacity:1;" d="M 768.503906 238.800781 L 768.503906 205.023438 C 768.503906 175.085938 756.988281 165.105469 730.886719 165.105469 L 661.800781 165.105469 L 661.800781 278.71875 L 731.65625 278.71875 C 759.289062 278.71875 768.503906 264.898438 768.503906 238.800781 Z M 741.636719 239.566406 C 741.636719 250.316406 737.796875 254.921875 728.585938 254.921875 L 687.132812 254.921875 L 687.132812 189.671875 L 728.585938 189.671875 C 737.796875 189.671875 741.636719 194.277344 741.636719 205.023438 C 741.636719 204.257812 741.636719 239.566406 741.636719 239.566406 Z M 741.636719 239.566406 "/><path style=" stroke:none;fill-rule:nonzero;fill:#0067b8;fill-opacity:1;" d="M 388.523438 251.851562 C 387.753906 251.082031 353.210938 183.53125 349.375 177.390625 C 344.765625 169.710938 338.625 164.339844 327.113281 164.339844 C 316.363281 164.339844 304.082031 168.945312 304.082031 194.277344 L 304.082031 278.71875 L 329.414062 278.71875 L 329.414062 208.09375 C 329.414062 202.722656 329.414062 195.8125 328.648438 194.277344 C 328.648438 192.742188 328.648438 191.972656 329.414062 191.207031 C 330.183594 190.4375 330.949219 191.207031 331.71875 192.742188 C 332.484375 193.507812 363.957031 257.222656 370.867188 267.203125 C 375.472656 274.878906 381.613281 280.253906 393.128906 280.253906 C 403.875 280.253906 416.15625 275.648438 416.15625 250.316406 L 416.15625 165.105469 L 390.824219 165.105469 L 390.824219 235.730469 C 390.824219 241.101562 390.824219 248.011719 391.59375 249.546875 C 391.59375 251.082031 391.59375 251.851562 390.824219 252.617188 C 389.289062 253.386719 388.523438 252.617188 388.523438 251.851562 Z M 388.523438 251.851562 "/></g></svg>