<?xml version="1.0" encoding="UTF-8"?><svg id="Capa_1" xmlns="http://www.w3.org/2000/svg" xmlns:xlink="http://www.w3.org/1999/xlink" viewBox="0 0 400 200"><defs><style>.cls-1{fill:url(#Degradado_sin_nombre_2);}.cls-2{fill:#005798;}.cls-3{fill:url(#Degradado_sin_nombre_2-2);}</style><linearGradient id="Degradado_sin_nombre_2" x1="99.23" y1="195.73" x2="99.23" y2="4.27" gradientUnits="userSpaceOnUse"><stop offset="0" stop-color="#005798"/><stop offset=".12" stop-color="#005798"/><stop offset="1" stop-color="#2083b5"/></linearGradient><linearGradient id="Degradado_sin_nombre_2-2" x1="198.85" y1="101.05" x2="198.85" y2="77.71" xlink:href="#Degradado_sin_nombre_2"/></defs><path class="cls-2" d="m258.26,98.55c-2.9,3.06-6.49,4.35-10.52,4.35s-7.41-1.45-10.03-4.08c-3.76-3.76-3.7-8-3.7-15.35s-.05-11.59,3.7-15.35c2.63-2.63,5.96-4.08,10.03-4.08,8.1,0,12.83,5.31,13.9,11.86h-5.85c-.97-4.19-3.76-6.65-8.05-6.65-2.25,0-4.29.91-5.63,2.36-1.88,2.04-2.31,4.19-2.31,11.86s.43,9.87,2.31,11.91c1.34,1.45,3.38,2.31,5.63,2.31,2.52,0,4.72-.97,6.23-2.68,1.4-1.61,1.93-3.54,1.93-6.01v-2.15h-8.16v-4.94h13.95v5.85c0,4.94-.91,8.1-3.43,10.79Z"/><path class="cls-2" d="m290.51,102.58l-8.05-16.1h-7.24v16.1h-5.8v-38.21h14.81c7.24,0,11.86,4.67,11.86,11.16,0,5.47-3.33,8.96-7.62,10.14l8.8,16.9h-6.76Zm-6.71-33h-8.59v11.97h8.59c3.86,0,6.49-2.2,6.49-5.96s-2.63-6.01-6.49-6.01Z"/><path class="cls-2" d="m316.86,102.9c-7.78,0-13.68-5.31-13.68-13.2v-25.33h5.8v25.06c0,5.1,3.11,8.26,7.89,8.26s7.94-3.17,7.94-8.26v-25.06h5.8v25.33c0,7.89-5.96,13.2-13.74,13.2Z"/><path class="cls-2" d="m353.67,87.55h-8.69v15.03h-5.8v-38.21h14.49c7.46,0,12.24,4.94,12.24,11.59s-4.78,11.59-12.24,11.59Zm-.32-17.98h-8.37v12.72h8.37c4.02,0,6.76-2.31,6.76-6.33s-2.74-6.39-6.76-6.39Z"/><path class="cls-2" d="m394.56,98.82c-2.63,2.63-6.01,4.08-10.09,4.08s-7.41-1.45-10.03-4.08c-3.76-3.76-3.7-8-3.7-15.35s-.05-11.59,3.7-15.35c2.63-2.63,5.96-4.08,10.03-4.08s7.46,1.45,10.09,4.08c3.76,3.76,3.65,8,3.65,15.35s.11,11.59-3.65,15.35Zm-4.4-27.21c-1.34-1.45-3.43-2.36-5.69-2.36s-4.35.91-5.69,2.36c-1.88,2.04-2.25,4.19-2.25,11.86s.38,9.82,2.25,11.86c1.34,1.45,3.43,2.36,5.69,2.36s4.35-.91,5.69-2.36c1.88-2.04,2.25-4.19,2.25-11.86s-.38-9.82-2.25-11.86Z"/><path class="cls-1" d="m193.31,75.51c2.37-2.55,3.28-4.2,3.28-6.93,0-3.56-2.01-6.02-5.84-6.02-2.74,0-6.02,1.28-6.02,6.29h-14.96c0-10.66,6.74-17.31,15.55-19.22-18.51-11.78-43.37-20.25-58.66-25.9C103.59,15.2,72.12,4.27,46.08,4.27c-9.43,0-18.15,1.43-25.49,4.93C-1.6,19.77.71,47.83,3.62,72.98c4.98,43.01,29.82,114.98,59.3,121.83,31.06,7.22,80.11-30.08,96.42-43.6,9.68-8.03,25.91-21.48,37.32-36.66h-38.1l34.75-39.04Zm-67.88-3.55c2.06,1.46,5.09,2.82,9.09,4.09,7.37,2.34,12.74,5.23,16.11,8.69,3.37,3.46,5.05,7.76,5.05,12.92,0,5.73-2.06,10.23-6.18,13.49-4.12,3.26-9.66,4.89-16.63,4.89-4.84,0-9.24-.93-13.22-2.8-3.97-1.87-7.01-4.42-9.09-7.67-2.09-3.25-3.13-7.01-3.13-11.28h13c0,7.31,4.15,10.96,12.44,10.96,3.08,0,5.49-.66,7.21-1.98s2.59-3.16,2.59-5.53c0-2.58-.86-4.56-2.59-5.94s-4.84-2.84-9.33-4.37c-4.49-1.53-8.05-3.04-10.67-4.53-7.14-4.06-10.71-9.54-10.71-16.42,0-3.58.96-6.77,2.87-9.58,1.91-2.81,4.66-5,8.25-6.57,3.59-1.58,7.61-2.37,12.07-2.37s8.49.86,12.01,2.57c3.51,1.71,6.24,4.13,8.19,7.26,1.94,3.12,2.92,6.67,2.92,10.65h-12.96c0-3.03-.91-5.39-2.72-7.07-1.81-1.68-4.36-2.53-7.65-2.53s-5.63.71-7.39,2.12c-1.76,1.41-2.64,3.27-2.64,5.57,0,2.15,1.03,3.96,3.09,5.41Z"/><path class="cls-3" d="m209.17,77.71c-1.35,2.24-3.24,4.38-5.64,6.91l-15.51,16.42h17.05c3.76-7.76,5.57-15.69,4.1-23.33Z"/></svg>