<svg id="eef67e55-2fe8-4b6e-a0e5-1adc471d8cdf" data-name="Capa 1" xmlns="http://www.w3.org/2000/svg" viewBox="0 0 2120 510"><defs><style>.f02f84f9-8105-4587-b3be-4ff404c16013{fill:#1e1e1e;}.ec1a164c-60b8-402a-9491-8f8305154067{fill:#5ce1e6;}</style></defs><path class="f02f84f9-8105-4587-b3be-4ff404c16013" d="M1183.38428,341.95376q-17.17611,0-29.19811-4.00751a62.79427,62.79427,0,0,1-19.92379-10.41992A60.71567,60.71567,0,0,1,1121.6681,314.015a59.26857,59.26857,0,0,1-6.87044-13.51035,94.62353,94.62353,0,0,1-3.54948-14.42742h40.075a34.33163,34.33163,0,0,0,5.1531,11.67925,28.466,28.466,0,0,0,10.07563,8.12977q6.75208,3.552,18.20642,3.54947,14.19585,0,20.49556-5.72588,6.29559-5.72076,6.29765-13.05231a12.982,12.982,0,0,0-4.69506-10.53469q-4.69559-3.89094-15.22872-5.95387l-22.67094-3.89326a116.24764,116.24764,0,0,1-26.67947-8.015,50.16442,50.16442,0,0,1-20.15228-15.572q-7.67431-10.07436-7.67072-26.10616,0-15.80125,7.90024-27.595,7.90026-11.79195,22.5572-18.43441,14.65234-6.6399,34.57869-6.64143,15.57147,0,26.5647,3.77849a60.96844,60.96844,0,0,1,18.32017,9.61811,57.43249,57.43249,0,0,1,18.43493,24.84683,83.97334,83.97334,0,0,1,3.54947,13.28235h-39.16a28.22177,28.22177,0,0,0-4.46553-9.50386,25.07448,25.07448,0,0,0-8.58678-6.75517q-5.72691-2.97412-15.573-2.97719-13.73935,0-19.46473,5.83962-5.72691,5.83911-5.72486,12.25153a11.73154,11.73154,0,0,0,6.29663,10.76319,50.3506,50.3506,0,0,0,15.91628,5.49584l24.045,4.12227a92.25827,92.25827,0,0,1,25.64865,8.473,50.68325,50.68325,0,0,1,18.77819,16.03q7.09485,10.07973,7.099,24.96109a49.81411,49.81411,0,0,1-7.90024,27.59553q-7.90025,12.25307-23.01523,19.23622Q1205.13967,341.95683,1183.38428,341.95376Z"/><path class="f02f84f9-8105-4587-b3be-4ff404c16013" d="M1309.58935,339.66361V204.552h-51.52578V170.20181h142.89709V204.552h-51.52477V339.66361Z"/><path class="ec1a164c-60b8-402a-9491-8f8305154067" d="M1733.01948,341.95376q-18.09217,0-31.48826-6.29766a61.03038,61.03038,0,0,1-22.09815-17.1756,75.17147,75.17147,0,0,1-13.05333-24.73156,96.07332,96.07332,0,0,1-4.35077-28.9691,110.38762,110.38762,0,0,1,5.49636-34.00692,96.80872,96.80872,0,0,1,17.05981-31.3735,83.64719,83.64719,0,0,1,29.54138-22.89995q17.97537-8.58729,42.938-8.5878a176.65052,176.65052,0,0,1,24.27455,2.06113V205.239q-7.55748-1.14276-13.05333-1.71735a106.72625,106.72625,0,0,0-10.99169-.57228q-15.802,0-27.366,5.72486a46.59973,46.59973,0,0,0-18.32017,15.68675,48.73912,48.73912,0,0,0-8.12977,22.32767,40.4949,40.4949,0,0,1,20.03752-16.3738q8.12619-3.31687,20.03752-3.32046,18.08912,0,30.34371,7.786a50.05007,50.05007,0,0,1,18.4339,20.267,58.814,58.814,0,0,1,6.18392,26.44943,61.96848,61.96848,0,0,1-4.00751,21.75488,58.2343,58.2343,0,0,1-12.252,19.58051,58.84521,58.84521,0,0,1-20.49555,13.96838Q1749.50651,341.95427,1733.01948,341.95376Zm.22953-32.51807q12.59121,0,19.69323-7.7865a28.38251,28.38251,0,0,0,0-37.5564q-7.09946-7.78266-19.69323-7.786-12.36679,0-19.58052,7.786a28.04787,28.04787,0,0,0,0,37.5564Q1720.88323,309.43724,1733.249,309.43569Z"/><path class="ec1a164c-60b8-402a-9491-8f8305154067" d="M1889.444,341.95376q-17.40666,0-30.91547-6.87045a68.13537,68.13537,0,0,1-22.90046-18.7782,85.08979,85.08979,0,0,1-14.31267-27.70926,117.93415,117.93415,0,0,1,0-67.441,86.71494,86.71494,0,0,1,14.31267-27.70927,66.40411,66.40411,0,0,1,22.90046-18.77819q13.5088-6.7521,30.91547-6.75568,17.40052,0,30.91547,6.75568a66.46676,66.46676,0,0,1,22.89944,18.77819,86.83859,86.83859,0,0,1,14.31267,27.70927,117.93415,117.93415,0,0,1,0,67.441,85.20871,85.20871,0,0,1-14.31267,27.70926,68.20158,68.20158,0,0,1-22.89944,18.7782Q1906.84448,341.95376,1889.444,341.95376Zm0-35.03774q13.9653,0,23.0142-12.93858,9.04378-12.93473,9.04584-39.04473,0-26.10616-9.04584-39.04473-9.04839-12.93551-23.0142-12.93857-13.97145,0-23.01523,12.93857-9.04839,12.94011-9.04583,39.04473,0,25.881,9.04583,38.93Q1875.47251,306.91653,1889.444,306.916Z"/><path class="ec1a164c-60b8-402a-9491-8f8305154067" d="M1641.07179,273.93992a37.62913,37.62913,0,0,0-11.10641-12.13728,62.12762,62.12762,0,0,0-14.42744-7.557v-1.60309a38.04009,38.04009,0,0,0,11.794-6.29762,39.75557,39.75557,0,0,0,10.64852-12.25153q4.348-7.55673,4.35082-18.32022a39.60019,39.60019,0,0,0-5.15224-20.15225A46.58055,46.58055,0,0,0,1623.095,180.507a68.14313,68.14313,0,0,0-20.03757-9.38913,83.46313,83.46313,0,0,0-23.24376-3.20619q-17.63547,0-29.08325,4.92355-11.45377,4.92766-18.32021,12.48055c-.36654.4033-.71225.80926-1.06312,1.21456h0l-.00083.001q-.72883.84171-1.41166,1.68927c-.03017.0375-.06084.07492-.09085.11243q-.64407.802-1.24813,1.609c-.05751.07676-.11418.15368-.17119.23044q-.55932.75546-1.08512,1.515c-.08584.12409-.16885.24861-.2532.373-.31636.46689-.6264.93453-.92277,1.40383-.11268.17777-.21919.3562-.32887.53431-.26019.42346-.51855.84709-.76258,1.27264-.14052.24436-.271.49-.40621.735-.202.36721-.40722.73408-.59724,1.10279-.17868.346-.343.69391-.51122,1.04128-.13351.27653-.27486.55206-.40188.82943q-.43605.95111-.82076,1.90854a77.711,77.711,0,0,0-3.58573,11.0574q-.39354,1.68144-.65141,3.25528c-.26569,1.62635-.47872,3.03451-.64173,4.23648h36.87578c.08934-.4.18435-.81451.2927-1.25981a26.28308,26.28308,0,0,1,3.54939-7.9003,22.07524,22.07524,0,0,1,7.78554-7.09888q5.15358-2.9742,13.39649-2.97724,10.7622,0,17.40428,5.61062a17.45381,17.45381,0,0,1,6.64174,13.85463,17.69041,17.69041,0,0,1-5.83948,13.16755q-5.84066,5.614-16.37433,5.61063h-15.35471V268.9021h14.89666q12.36687,0,18.66341,5.95383a18.87979,18.87979,0,0,1,6.29771,14.19792,17.89423,17.89423,0,0,1-7.21281,14.656q-7.21455,5.7269-19.12247,5.72589-9.39253,0-14.999-2.74822a22.00934,22.00934,0,0,1-8.35844-6.52715,21.01251,21.01251,0,0,1-3.66424-7.44224c-.12485-.53356-.20719-.87952-.26469-1.11705l-.006-.02533c-.0875-.36088-.11167-.44814-.12568-.50148l-.00833-.03383-.00367-.01534-.013-.06042-.00833-.03959-.014-.068c-.01584-.07659-.03768-.1826-.07168-.34687l-37.95707.0891c.16152,1.14029.11568,1.09645.53939,3.22961.09785.4923.22053,1.10045.37671,1.86587q.15627.76571.33221,1.55992c.23536,1.05879.50072,2.155.80659,3.2867.3057,1.13171.65174,2.29893,1.04861,3.49965.59507,1.80111,1.30448,3.67774,2.16341,5.62321q.85886,1.947,1.94639,3.87243a55.46886,55.46886,0,0,0,6.86976,9.491q.8301.93549,1.71753,1.8653c.01983.02083.04234.04042.06234.06125q.75158.78433,1.56617,1.53651a55.19743,55.19743,0,0,0,17.72231,10.65427q12.24862,4.80766,31.03047,4.80879a86.18046,86.18046,0,0,0,32.28943-5.95442,57.374,57.374,0,0,0,23.93018-17.17458q9.044-11.21864,9.046-27.25121Q1645.30893,281.26791,1641.07179,273.93992Z"/><path class="f02f84f9-8105-4587-b3be-4ff404c16013" d="M1505.297,315.17285a76.71111,76.71111,0,0,1-3.38788-9.2632c-4.183,2.33951-9.95394,3.52606-17.3626,3.52606q-11.45377,0-18.20637-3.54948a28.46688,28.46688,0,0,1-10.07579-8.12982,34.3315,34.3315,0,0,1-5.15291-11.67922h-40.07514a94.5903,94.5903,0,0,0,3.5494,14.42744,59.2341,59.2341,0,0,0,6.87043,13.51034,60.69886,60.69886,0,0,0,12.59541,13.51134,62.77765,62.77765,0,0,0,19.92272,10.41992q12.02259,4.00393,29.1981,4.00753,21.29787,0,36.21837-6.70984c-.3137-.3127-.64574-.61523-.94927-.93368A67.4176,67.4176,0,0,1,1505.297,315.17285Z"/><path class="f02f84f9-8105-4587-b3be-4ff404c16013" d="M1549.76794,276.87124a37.77668,37.77668,0,0,0-5.91016-13.69453,50.68373,50.68373,0,0,0-18.77826-16.03,92.25743,92.25743,0,0,0-25.64869-8.473l-24.045-4.1223a50.3314,50.3314,0,0,1-15.91511-5.49578,11.73077,11.73077,0,0,1-6.2977-10.7632q0-6.40859,5.7248-12.25153,5.7209-5.8399,19.46467-5.83965,9.8446,0,15.57308,2.97724a25.07509,25.07509,0,0,1,8.58679,6.75518c.36554.4828.70191,1.01128,1.03661,1.54183a84.915,84.915,0,0,1,4.7577-15.65224,64.56913,64.56913,0,0,1,11.05273-17.85775,67.19066,67.19066,0,0,0-13.52617-6.27528q-10.99248-3.778-26.56463-3.7785-19.92273,0-34.57853,6.6414-14.65863,6.64449-22.55735,18.43439-7.90012,11.79746-7.90021,27.59508,0,16.03179,7.67168,26.10617a50.15311,50.15311,0,0,0,20.15225,15.572,116.24673,116.24673,0,0,0,26.67865,8.015l22.67086,3.89327a50.80706,50.80706,0,0,1,9.76959,2.81632l11.29126-.02651Z"/><path class="f02f84f9-8105-4587-b3be-4ff404c16013" d="M233.396,341.95376q-17.17458,0-29.19761-4.00751a62.78589,62.78589,0,0,1-19.92327-10.41992A60.71867,60.71867,0,0,1,171.68036,314.015a59.26863,59.26863,0,0,1-6.87045-13.51035,94.62475,94.62475,0,0,1-3.54947-14.42742H201.336a34.33159,34.33159,0,0,0,5.15258,11.67925,28.46372,28.46372,0,0,0,10.07615,8.12977q6.75209,3.552,18.2054,3.54947,14.19662,0,20.49606-5.72588,6.29561-5.72076,6.29714-13.05231a12.98157,12.98157,0,0,0-4.69455-10.53469q-4.69633-3.89094-15.22821-5.95387l-22.67144-3.89326a116.24344,116.24344,0,0,1-26.679-8.015,50.16094,50.16094,0,0,1-20.15228-15.572q-7.67508-10.07436-7.67123-26.10616,0-15.80125,7.90024-27.595,7.901-11.79195,22.5572-18.43441,14.65234-6.6399,34.5792-6.64143,15.56994,0,26.56419,3.77849a60.97467,60.97467,0,0,1,18.32016,9.61811,57.44346,57.44346,0,0,1,18.43493,24.84683,83.97331,83.97331,0,0,1,3.54948,13.28235h-39.1595a28.24123,28.24123,0,0,0-4.46553-9.50386,25.08409,25.08409,0,0,0-8.5878-6.75517q-5.72691-2.97412-15.572-2.97719-13.74012,0-19.46524,5.83962-5.72691,5.83911-5.72486,12.25153a11.73106,11.73106,0,0,0,6.29714,10.76319A50.34731,50.34731,0,0,0,225.61,234.55141l24.04554,4.12227a92.26032,92.26032,0,0,1,25.64813,8.473,50.68722,50.68722,0,0,1,18.7782,16.03q7.09562,10.07973,7.099,24.96109a49.81412,49.81412,0,0,1-7.90025,27.59553q-7.901,12.25307-23.01471,19.23622Q255.15168,341.95683,233.396,341.95376Z"/><path class="f02f84f9-8105-4587-b3be-4ff404c16013" d="M403.99675,341.95376q-21.07167,0-37.09836-7.44222a77.21164,77.21164,0,0,1-26.679-19.92378,86.15367,86.15367,0,0,1-16.03-28.05253,96.15346,96.15346,0,0,1,0-63.43405,84.90852,84.90852,0,0,1,16.03-27.93828,77.96552,77.96552,0,0,1,26.679-19.80851q16.02642-7.43913,37.09836-7.44272,18.08757,0,30.80071,4.46553a67.581,67.581,0,0,1,21.29736,11.67925A69.71273,69.71273,0,0,1,469.8352,199.1704a71.899,71.899,0,0,1,7.67123,14.99971,101.08961,101.08961,0,0,1,4.12227,16.25955H442.4692a48.2057,48.2057,0,0,0-6.29765-13.62562,32.54519,32.54519,0,0,0-11.33547-9.50386q-7.55749-4.12227-20.3813-4.12176-14.889,0-24.84684,7.557A46.13034,46.13034,0,0,0,364.723,230.08588a63.24328,63.24328,0,0,0-4.92356,24.61782,64.051,64.051,0,0,0,4.92356,24.73207A45.99489,45.99489,0,0,0,379.60794,298.901q9.96138,7.5575,24.84684,7.557,12.82252,0,20.3813-4.12227,7.55672-4.12074,11.33547-9.3891a46.40241,46.40241,0,0,0,6.29765-13.51085h39.1595a105.98342,105.98342,0,0,1-4.12227,16.14529,70.67174,70.67174,0,0,1-7.67123,15.114,69.701,69.701,0,0,1-13.74038,15.114,67.57091,67.57091,0,0,1-21.29736,11.67924Q422.0879,341.95324,403.99675,341.95376Z"/><path class="f02f84f9-8105-4587-b3be-4ff404c16013" d="M504.29758,339.66361V170.20181h39.61753v169.4618Z"/><path class="f02f84f9-8105-4587-b3be-4ff404c16013" d="M1051.72514,339.66361V170.20181h39.61752v169.4618Z"/><path class="f02f84f9-8105-4587-b3be-4ff404c16013" d="M573.22594,339.66361V170.20181H692.99458V204.552H612.84347v32.74759h69.846v32.74708h-69.846v35.26675h81.29618v34.35019Z"/><path class="f02f84f9-8105-4587-b3be-4ff404c16013" d="M721.84533,339.66361V170.20181h36.41183l67.78431,100.98993V170.20181H865.201v169.4618H828.56063l-67.32679-97.09719v97.09719Z"/><path class="f02f84f9-8105-4587-b3be-4ff404c16013" d="M939.85572,339.66361V204.552H888.32993V170.20181h142.8976V204.552H979.70175V339.66361Z"/><path class="ec1a164c-60b8-402a-9491-8f8305154067" d="M1733.01948,341.95376q-18.09217,0-31.48826-6.29766a61.03038,61.03038,0,0,1-22.09815-17.1756,75.17147,75.17147,0,0,1-13.05333-24.73156,96.07332,96.07332,0,0,1-4.35077-28.9691,110.38762,110.38762,0,0,1,5.49636-34.00692,96.80872,96.80872,0,0,1,17.05981-31.3735,83.64719,83.64719,0,0,1,29.54138-22.89995q17.97537-8.58729,42.938-8.5878a176.65052,176.65052,0,0,1,24.27455,2.06113V205.239q-7.55748-1.14276-13.05333-1.71735a106.72625,106.72625,0,0,0-10.99169-.57228q-15.802,0-27.366,5.72486a46.59973,46.59973,0,0,0-18.32017,15.68675,48.73912,48.73912,0,0,0-8.12977,22.32767,40.4949,40.4949,0,0,1,20.03752-16.3738q8.12619-3.31687,20.03752-3.32046,18.08912,0,30.34371,7.786a50.05007,50.05007,0,0,1,18.4339,20.267,58.814,58.814,0,0,1,6.18392,26.44943,61.96848,61.96848,0,0,1-4.00751,21.75488,58.2343,58.2343,0,0,1-12.252,19.58051,58.84521,58.84521,0,0,1-20.49555,13.96838Q1749.50651,341.95427,1733.01948,341.95376Zm.22953-32.51807q12.59121,0,19.69323-7.7865a28.38251,28.38251,0,0,0,0-37.5564q-7.09946-7.78266-19.69323-7.786-12.36679,0-19.58052,7.786a28.04787,28.04787,0,0,0,0,37.5564Q1720.88323,309.43724,1733.249,309.43569Z"/><path class="ec1a164c-60b8-402a-9491-8f8305154067" d="M1889.444,341.95376q-17.40666,0-30.91547-6.87045a68.13537,68.13537,0,0,1-22.90046-18.7782,85.08979,85.08979,0,0,1-14.31267-27.70926,117.93415,117.93415,0,0,1,0-67.441,86.71494,86.71494,0,0,1,14.31267-27.70927,66.40411,66.40411,0,0,1,22.90046-18.77819q13.5088-6.7521,30.91547-6.75568,17.40052,0,30.91547,6.75568a66.46676,66.46676,0,0,1,22.89944,18.77819,86.83859,86.83859,0,0,1,14.31267,27.70927,117.93415,117.93415,0,0,1,0,67.441,85.20871,85.20871,0,0,1-14.31267,27.70926,68.20158,68.20158,0,0,1-22.89944,18.7782Q1906.84448,341.95376,1889.444,341.95376Zm0-35.03774q13.9653,0,23.0142-12.93858,9.04378-12.93473,9.04584-39.04473,0-26.10616-9.04584-39.04473-9.04839-12.93551-23.0142-12.93857-13.97145,0-23.01523,12.93857-9.04839,12.94011-9.04583,39.04473,0,25.881,9.04583,38.93Q1875.47251,306.91653,1889.444,306.916Z"/><path class="ec1a164c-60b8-402a-9491-8f8305154067" d="M1641.07179,273.93992a37.62913,37.62913,0,0,0-11.10641-12.13728,62.12762,62.12762,0,0,0-14.42744-7.557v-1.60309a38.04009,38.04009,0,0,0,11.794-6.29762,39.75557,39.75557,0,0,0,10.64852-12.25153q4.348-7.55673,4.35082-18.32022a39.60019,39.60019,0,0,0-5.15224-20.15225A46.58055,46.58055,0,0,0,1623.095,180.507a68.14313,68.14313,0,0,0-20.03757-9.38913,83.46313,83.46313,0,0,0-23.24376-3.20619q-17.63547,0-29.08325,4.92355-11.45377,4.92766-18.32021,12.48055c-.36654.4033-.71225.80926-1.06312,1.21456h0l-.00083.001q-.72883.84171-1.41166,1.68927c-.03017.0375-.06084.07492-.09085.11243q-.64407.802-1.24813,1.609c-.05751.07676-.11418.15368-.17119.23044q-.55932.75546-1.08512,1.515c-.08584.12409-.16885.24861-.2532.373-.31636.46689-.6264.93453-.92277,1.40383-.11268.17777-.21919.3562-.32887.53431-.26019.42346-.51855.84709-.76258,1.27264-.14052.24436-.271.49-.40621.735-.202.36721-.40722.73408-.59724,1.10279-.17868.346-.343.69391-.51122,1.04128-.13351.27653-.27486.55206-.40188.82943q-.43605.95111-.82076,1.90854a77.711,77.711,0,0,0-3.58573,11.0574q-.39354,1.68144-.65141,3.25528c-.26569,1.62635-.47872,3.03451-.64173,4.23648h36.87578c.08934-.4.18435-.81451.2927-1.25981a26.28308,26.28308,0,0,1,3.54939-7.9003,22.07524,22.07524,0,0,1,7.78554-7.09888q5.15358-2.9742,13.39649-2.97724,10.7622,0,17.40428,5.61062a17.45381,17.45381,0,0,1,6.64174,13.85463,17.69041,17.69041,0,0,1-5.83948,13.16755q-5.84066,5.614-16.37433,5.61063h-15.35471V268.9021h14.89666q12.36687,0,18.66341,5.95383a18.87979,18.87979,0,0,1,6.29771,14.19792,17.89423,17.89423,0,0,1-7.21281,14.656q-7.21455,5.7269-19.12247,5.72589-9.39253,0-14.999-2.74822a22.00934,22.00934,0,0,1-8.35844-6.52715,21.01251,21.01251,0,0,1-3.66424-7.44224c-.12485-.53356-.20719-.87952-.26469-1.11705l-.006-.02533c-.0875-.36088-.11167-.44814-.12568-.50148l-.00833-.03383-.00367-.01534-.013-.06042-.00833-.03959-.014-.068c-.01584-.07659-.03768-.1826-.07168-.34687l-37.95707.0891c.16152,1.14029.11568,1.09645.53939,3.22961.09785.4923.22053,1.10045.37671,1.86587q.15627.76571.33221,1.55992c.23536,1.05879.50072,2.155.80659,3.2867.3057,1.13171.65174,2.29893,1.04861,3.49965.59507,1.80111,1.30448,3.67774,2.16341,5.62321q.85886,1.947,1.94639,3.87243a55.46886,55.46886,0,0,0,6.86976,9.491q.8301.93549,1.71753,1.8653c.01983.02083.04234.04042.06234.06125q.75158.78433,1.56617,1.53651a55.19743,55.19743,0,0,0,17.72231,10.65427q12.24862,4.80766,31.03047,4.80879a86.18046,86.18046,0,0,0,32.28943-5.95442,57.374,57.374,0,0,0,23.93018-17.17458q9.044-11.21864,9.046-27.25121Q1645.30893,281.26791,1641.07179,273.93992Z"/></svg>